999
Created with Floor Plan Creator on Android
0
SECTION
2
HEADER
9
$ACADVER
1
AC1021
9
$HANDSEED
5
20000
9
$DWGCODEPAGE
3
ANSI_1250
9
$INSBASE
10
0
20
0
30
0
9
$EXTMIN
10
0
20
0
30
0
9
$EXTMAX
10
1927.2
20
687.2
30
0
9
$LIMMIN
10
0
20
0
9
$LIMMAX
10
420
20
297
9
$ORTHOMODE
70
0
9
$LTSCALE
40
1
9
$TEXTSTYLE
7
STANDARD
9
$CLAYER
8
symbols
9
$DIMASZ
40
2.5
9
$DIMLFAC
40
1
9
$DIMSCALE
40
1
9
$DIMEXO
40
0.625
9
$DIMEXE
40
1.25
9
$DIMTXT
40
2.5
9
$DIMTSZ
40
0
9
$DIMAUNIT
70
0
9
$DIMADEC
70
0
9
$DIMLUNIT
70
2
9
$DIMSTYLE
2
STANDARD
9
$DIMGAP
40
1
9
$DIMTIH
70
0
9
$LUNITS
70
2
9
$LUPREC
70
4
9
$AUNITS
70
0
9
$AUPREC
70
2
9
$SPLINESEGS
70
8
9
$GRIDMODE
70
1
9
$SNAPSTYLE
70
0
9
$PINSBASE
10
0
20
0
30
0
9
$PLIMMIN
10
0
20
0
9
$PLIMMAX
10
210
20
297
9
$INSUNITS
70
5
9
$MEASUREMENT
70
0
9
$PSVPSCALE
40
1
0
ENDSEC
0
SECTION
2
CLASSES
0
ENDSEC
0
SECTION
2
TABLES
0
TABLE
2
VPORT
5
8
330
0
100
AcDbSymbolTable
70
1
0
VPORT
5
31
330
2
100
AcDbSymbolTableRecord
100
AcDbViewportTableRecord
2
*ACTIVE
70
0
10
0
20
0
11
1
21
1
12
160.46875
22
81.40625
13
0
23
0
14
10
24
10
15
10
25
10
16
0
26
0
36
1
17
0
27
0
37
0
40
190
41
1.95394736842
42
50
43
0
44
0
50
0
51
0
71
0
72
100
73
1
74
3
75
0
76
1
77
0
78
0
281
0
65
1
110
0
120
0
130
0
111
1
121
0
131
0
112
0
122
1
132
0
79
0
146
0
348
10020
60
7
61
5
292
1
282
1
141
0
142
0
63
250
421
3358443
0
ENDTAB
0
TABLE
2
LTYPE
5
5
330
0
100
AcDbSymbolTable
70
4
0
LTYPE
5
14
330
5
100
AcDbSymbolTableRecord
100
AcDbLinetypeTableRecord
2
ByBlock
70
0
3

72
65
73
0
40
0
0
LTYPE
5
15
330
5
100
AcDbSymbolTableRecord
100
AcDbLinetypeTableRecord
2
ByLayer
70
0
3

72
65
73
0
40
0
0
LTYPE
5
16
330
5
100
AcDbSymbolTableRecord
100
AcDbLinetypeTableRecord
2
Continuous
70
0
3
Solid line
72
65
73
0
40
0
0
LTYPE
5
32
330
5
100
AcDbSymbolTableRecord
100
AcDbLinetypeTableRecord
2
DOT
70
0
3
Dot . . . . . . . . . . . . . . . . . . . . . .
72
65
73
2
40
6.35
49
0
74
0
49
-6.35
74
0
0
LTYPE
5
33
330
5
100
AcDbSymbolTableRecord
100
AcDbLinetypeTableRecord
2
DOT2
70
0
3
Dot (.5x) .....................................
72
65
73
2
40
3.175
49
0
74
0
49
-3.175
74
0
0
LTYPE
5
34
330
5
100
AcDbSymbolTableRecord
100
AcDbLinetypeTableRecord
2
DOTX2
70
0
3
Dot (2x) .  .  .  .  .  .  .  .  .  .  .  .  .
72
65
73
2
40
12.7
49
0
74
0
49
-12.7
74
0
0
LTYPE
5
35
330
5
100
AcDbSymbolTableRecord
100
AcDbLinetypeTableRecord
2
DASHED
70
0
3
Dot . . . . . . . . . . . . . . . . . . . . . .
72
65
73
2
40
19.05
49
12.7
74
0
49
-6.35
74
0
0
LTYPE
5
36
330
5
100
AcDbSymbolTableRecord
100
AcDbLinetypeTableRecord
2
DASHED2
70
0
3
Dashed (.5x) _ _ _ _ _ _ _ _ _ _ _ _ _ _ _ _ _
72
65
73
2
40
9.525
49
6.35
74
0
49
-3.175
74
0
0
LTYPE
5
37
330
5
100
AcDbSymbolTableRecord
100
AcDbLinetypeTableRecord
2
DASHEDX2
70
0
3
Dashed (2x) ____  ____  ____  ____  ____  ___
72
65
73
2
40
38.1
49
25.4
74
0
49
-12.7
74
0
0
LTYPE
5
38
330
5
100
AcDbSymbolTableRecord
100
AcDbLinetypeTableRecord
2
DASHDOT
70
0
3
Dash dot __ . __ . __ . __ . __ . __ . __ . __
72
65
73
4
40
25.4
49
12.7
74
0
49
-6.35
74
0
49
0
74
0
49
-6.35
74
0
0
LTYPE
5
39
330
5
100
AcDbSymbolTableRecord
100
AcDbLinetypeTableRecord
2
DASHDOT2
70
0
3
Dash dot (.5x) _._._._._._._._._._._._._._._.
72
65
73
4
40
12.7
49
6.35
74
0
49
-3.175
74
0
49
0
74
0
49
-3.175
74
0
0
LTYPE
5
3A
330
5
100
AcDbSymbolTableRecord
100
AcDbLinetypeTableRecord
2
DASHDOTX2
70
0
3
Dash dot (2x) ____  .  ____  .  ____  .  ___
72
65
73
4
40
50.8
49
25.4
74
0
49
-12.7
74
0
49
0
74
0
49
-12.7
74
0
0
LTYPE
5
3B
330
5
100
AcDbSymbolTableRecord
100
AcDbLinetypeTableRecord
2
DIVIDE
70
0
3
Divide ____ . . ____ . . ____ . . ____ . . ____
72
65
73
6
40
31.75
49
12.7
74
0
49
-6.35
74
0
49
0
74
0
49
-6.35
74
0
49
0
74
0
49
-6.35
74
0
0
LTYPE
5
3C
330
5
100
AcDbSymbolTableRecord
100
AcDbLinetypeTableRecord
2
DIVIDE2
70
0
3
Divide (.5x) __..__..__..__..__..__..__..__.._
72
65
73
6
40
15.875
49
6.35
74
0
49
-3.175
74
0
49
0
74
0
49
-3.175
74
0
49
0
74
0
49
-3.175
74
0
0
LTYPE
5
3D
330
5
100
AcDbSymbolTableRecord
100
AcDbLinetypeTableRecord
2
DIVIDEX2
70
0
3
Divide (2x) ________  .  .  ________  .  .  _
72
65
73
6
40
63.5
49
25.4
74
0
49
-12.7
74
0
49
0
74
0
49
-12.7
74
0
49
0
74
0
49
-12.7
74
0
0
LTYPE
5
3E
330
5
100
AcDbSymbolTableRecord
100
AcDbLinetypeTableRecord
2
BORDER
70
0
3
Border __ __ . __ __ . __ __ . __ __ . __ __ .
72
65
73
6
40
44.45
49
12.7
74
0
49
-6.35
74
0
49
12.7
74
0
49
-6.35
74
0
49
0
74
0
49
-6.35
74
0
0
LTYPE
5
3F
330
5
100
AcDbSymbolTableRecord
100
AcDbLinetypeTableRecord
2
BORDER2
70
0
3
Border (.5x) __.__.__.__.__.__.__.__.__.__.__.
72
65
73
6
40
22.225
49
6.35
74
0
49
-3.175
74
0
49
6.35
74
0
49
-3.175
74
0
49
0
74
0
49
-3.175
74
0
0
LTYPE
5
40
330
5
100
AcDbSymbolTableRecord
100
AcDbLinetypeTableRecord
2
BORDERX2
70
0
3
Border (2x) ____  ____  .  ____  ____  .  ___
72
65
73
6
40
88.9
49
25.4
74
0
49
-12.7
74
0
49
25.4
74
0
49
-12.7
74
0
49
0
74
0
49
-12.7
74
0
0
LTYPE
5
41
330
5
100
AcDbSymbolTableRecord
100
AcDbLinetypeTableRecord
2
CENTER
70
0
3
Center ____ _ ____ _ ____ _ ____ _ ____ _ ____
72
65
73
4
40
50.8
49
31.75
74
0
49
-6.35
74
0
49
6.35
74
0
49
-6.35
74
0
0
LTYPE
5
42
330
5
100
AcDbSymbolTableRecord
100
AcDbLinetypeTableRecord
2
CENTER2
70
0
3
Center (.5x) ___ _ ___ _ ___ _ ___ _ ___ _ ___
72
65
73
4
40
28.575
49
19.05
74
0
49
-3.175
74
0
49
3.175
74
0
49
-3.175
74
0
0
LTYPE
5
43
330
5
100
AcDbSymbolTableRecord
100
AcDbLinetypeTableRecord
2
CENTERX2
70
0
3
Center (2x) ________  __  ________  __  _____
72
65
73
4
40
101.6
49
63.5
74
0
49
-12.7
74
0
49
12.7
74
0
49
-12.7
74
0
0
ENDTAB
0
TABLE
2
LAYER
5
2
330
0
100
AcDbSymbolTable
70
1
0
LAYER
5
10
330
2
100
AcDbSymbolTableRecord
100
AcDbLayerTableRecord
2
0
70
0
62
7
6
CONTINUOUS
370
0
390
F
0
LAYER
5
44
330
2
100
AcDbSymbolTableRecord
100
AcDbLayerTableRecord
2
walls
70
0
62
2
6
CONTINUOUS
370
0
390
F
0
LAYER
5
45
330
2
100
AcDbSymbolTableRecord
100
AcDbLayerTableRecord
2
text
70
0
62
7
6
CONTINUOUS
370
0
390
F
0
LAYER
5
46
330
2
100
AcDbSymbolTableRecord
100
AcDbLayerTableRecord
2
symbols
70
0
62
3
6
CONTINUOUS
370
0
390
F
0
LAYER
5
47
330
2
100
AcDbSymbolTableRecord
100
AcDbLayerTableRecord
2
dimensions
70
0
62
7
6
CONTINUOUS
370
0
390
F
0
ENDTAB
0
TABLE
2
STYLE
5
3
330
0
100
AcDbSymbolTable
70
3
0
STYLE
5
48
330
2
100
AcDbSymbolTableRecord
100
AcDbTextStyleTableRecord
2
standard
70
0
40
0
41
1
50
0
71
0
42
1
3
standard
4

0
ENDTAB
0
TABLE
2
VIEW
5
6
330
0
100
AcDbSymbolTable
70
0
0
ENDTAB
0
TABLE
2
UCS
5
7
330
0
100
AcDbSymbolTable
70
0
0
ENDTAB
0
TABLE
2
APPID
5
9
330
0
100
AcDbSymbolTable
70
1
0
APPID
5
12
330
9
100
AcDbSymbolTableRecord
100
AcDbRegAppTableRecord
2
ACAD
70
0
0
ENDTAB
0
TABLE
2
DIMSTYLE
5
A
330
0
100
AcDbSymbolTable
70
1
100
AcDbDimStyleTable
71
1
0
DIMSTYLE
105
49
330
A
100
AcDbSymbolTableRecord
100
AcDbDimStyleTableRecord
2
Standard
70
0
40
1
41
2.5
42
0.625
43
0.38
44
1.25
45
0
46
0
47
0
48
0
140
2.5
141
0.09
142
0
143
25.4
144
1
145
0
146
1
147
0.625
148
0
71
0
72
0
73
0
74
1
75
0
76
0
77
0
78
0
79
0
170
0
171
2
172
0
173
0
174
0
175
0
176
0
177
0
178
0
179
0
271
4
272
4
273
2
274
2
275
0
276
0
277
2
278
46
279
0
280
0
281
0
282
0
283
1
284
0
285
0
286
0
288
0
289
3
340
Standard
341

371
-2
372
-2
0
ENDTAB
0
TABLE
2
BLOCK_RECORD
5
1
330
0
100
AcDbSymbolTable
70
2
0
BLOCK_RECORD
5
1F
330
1
100
AcDbSymbolTableRecord
100
AcDbBlockTableRecord
2
*Model_Space
70
0
280
1
281
0
0
BLOCK_RECORD
5
1E
330
1
100
AcDbSymbolTableRecord
100
AcDbBlockTableRecord
2
*Paper_Space
70
0
280
1
281
0
0
BLOCK_RECORD
5
4A
330
1
100
AcDbSymbolTableRecord
100
AcDbBlockTableRecord
2
*D1
70
0
280
1
281
0
0
BLOCK_RECORD
5
4B
330
1
100
AcDbSymbolTableRecord
100
AcDbBlockTableRecord
2
*D2
70
0
280
1
281
0
0
BLOCK_RECORD
5
4C
330
1
100
AcDbSymbolTableRecord
100
AcDbBlockTableRecord
2
*D3
70
0
280
1
281
0
0
BLOCK_RECORD
5
4D
330
1
100
AcDbSymbolTableRecord
100
AcDbBlockTableRecord
2
*D4
70
0
280
1
281
0
0
ENDTAB
0
ENDSEC
0
SECTION
2
BLOCKS
0
BLOCK
5
20
330
1F
100
AcDbEntity
8
0
100
AcDbBlockBegin
2
*Model_Space
70
0
10
0
20
0
30
0
3
*Model_Space
1

0
ENDBLK
5
21
330
1F
100
AcDbEntity
8
0
100
AcDbBlockEnd
0
BLOCK
5
1C
330
0
100
AcDbEntity
8
0
100
AcDbBlockBegin
2
*Paper_Space
70
0
10
0
20
0
30
0
3
*Paper_Space
1

0
ENDBLK
5
1D
330
1F
100
AcDbEntity
8
0
100
AcDbBlockEnd
0
BLOCK
5
4E
330
4A
100
AcDbEntity
8
0
100
AcDbBlockBegin
2
*D1
70
1
10
0
20
0
3
*D1
1

0
LINE
5
4F
100
AcDbEntity
8
dimensions
6
ByLayer
62
256
370
-1
100
AcDbLine
10
74.1
20
658.7
11
1853.1
21
658.7
0
LINE
5
50
100
AcDbEntity
8
dimensions
6
ByLayer
62
256
370
-1
100
AcDbLine
10
83.6
20
620.7
11
83.6
21
668.2
0
LINE
5
51
100
AcDbEntity
8
dimensions
6
ByLayer
62
256
370
-1
100
AcDbLine
10
78.85
20
663.45
11
88.35
21
653.95
0
LINE
5
52
100
AcDbEntity
8
dimensions
6
ByLayer
62
256
370
-1
100
AcDbLine
10
1843.6
20
620.7
11
1843.6
21
668.2
0
LINE
5
53
100
AcDbEntity
8
dimensions
6
ByLayer
62
256
370
-1
100
AcDbLine
10
1838.85
20
663.45
11
1848.35
21
653.95
0
TEXT
5
54
100
AcDbEntity
8
text
6
ByLayer
62
256
370
-1
100
AcDbText
10
929.4
20
672.95
30
0
40
19
1
17.6
50
0
41
0.9
7
standard
72
1
11
963.6
21
672.95
31
0
100
AcDbText
0
ENDBLK
5
55
330
46
100
AcDbEntity
8
0
100
AcDbBlockEnd
0
BLOCK
5
56
330
4B
100
AcDbEntity
8
0
100
AcDbBlockBegin
2
*D2
70
1
10
0
20
0
3
*D2
1

0
LINE
5
57
100
AcDbEntity
8
dimensions
6
ByLayer
62
256
370
-1
100
AcDbLine
10
74.1
20
28.5
11
1853.1
21
28.5
0
LINE
5
58
100
AcDbEntity
8
dimensions
6
ByLayer
62
256
370
-1
100
AcDbLine
10
83.6
20
66.5
11
83.6
21
19
0
LINE
5
59
100
AcDbEntity
8
dimensions
6
ByLayer
62
256
370
-1
100
AcDbLine
10
78.85
20
33.25
11
88.35
21
23.75
0
LINE
5
5A
100
AcDbEntity
8
dimensions
6
ByLayer
62
256
370
-1
100
AcDbLine
10
1843.6
20
66.5
11
1843.6
21
19
0
LINE
5
5B
100
AcDbEntity
8
dimensions
6
ByLayer
62
256
370
-1
100
AcDbLine
10
1838.85
20
33.25
11
1848.35
21
23.75
0
TEXT
5
5C
100
AcDbEntity
8
text
6
ByLayer
62
256
370
-1
100
AcDbText
10
929.4
20
42.75
30
0
40
19
1
17.6
50
0
41
0.9
7
standard
72
1
11
963.6
21
42.75
31
0
100
AcDbText
0
ENDBLK
5
5D
330
46
100
AcDbEntity
8
0
100
AcDbBlockEnd
0
BLOCK
5
5E
330
4C
100
AcDbEntity
8
0
100
AcDbBlockBegin
2
*D3
70
1
10
0
20
0
3
*D3
1

0
LINE
5
5F
100
AcDbEntity
8
dimensions
6
ByLayer
62
256
370
-1
100
AcDbLine
10
28.5
20
613.1
11
28.5
21
74.1
0
LINE
5
60
100
AcDbEntity
8
dimensions
6
ByLayer
62
256
370
-1
100
AcDbLine
10
66.5
20
603.6
11
19
21
603.6
0
LINE
5
61
100
AcDbEntity
8
dimensions
6
ByLayer
62
256
370
-1
100
AcDbLine
10
33.25
20
608.35
11
23.75
21
598.85
0
LINE
5
62
100
AcDbEntity
8
dimensions
6
ByLayer
62
256
370
-1
100
AcDbLine
10
66.5
20
83.6
11
19
21
83.6
0
LINE
5
63
100
AcDbEntity
8
dimensions
6
ByLayer
62
256
370
-1
100
AcDbLine
10
33.25
20
88.35
11
23.75
21
78.85
0
TEXT
5
64
100
AcDbEntity
8
text
6
ByLayer
62
256
370
-1
100
AcDbText
10
-20.9
20
334.1
30
0
40
19
1
5.2
50
-270
41
0.9
7
standard
72
1
11
4.75
21
334.1
31
0
100
AcDbText
0
ENDBLK
5
65
330
46
100
AcDbEntity
8
0
100
AcDbBlockEnd
0
BLOCK
5
66
330
4D
100
AcDbEntity
8
0
100
AcDbBlockBegin
2
*D4
70
1
10
0
20
0
3
*D4
1

0
LINE
5
67
100
AcDbEntity
8
dimensions
6
ByLayer
62
256
370
-1
100
AcDbLine
10
1898.7
20
613.1
11
1898.7
21
74.1
0
LINE
5
68
100
AcDbEntity
8
dimensions
6
ByLayer
62
256
370
-1
100
AcDbLine
10
1860.7
20
603.6
11
1908.2
21
603.6
0
LINE
5
69
100
AcDbEntity
8
dimensions
6
ByLayer
62
256
370
-1
100
AcDbLine
10
1903.45
20
608.35
11
1893.95
21
598.85
0
LINE
5
6A
100
AcDbEntity
8
dimensions
6
ByLayer
62
256
370
-1
100
AcDbLine
10
1860.7
20
83.6
11
1908.2
21
83.6
0
LINE
5
6B
100
AcDbEntity
8
dimensions
6
ByLayer
62
256
370
-1
100
AcDbLine
10
1903.45
20
88.35
11
1893.95
21
78.85
0
TEXT
5
6C
100
AcDbEntity
8
text
6
ByLayer
62
256
370
-1
100
AcDbText
10
1849.3
20
334.1
30
0
40
19
1
5.2
50
-270
41
0.9
7
standard
72
1
11
1874.95
21
334.1
31
0
100
AcDbText
0
ENDBLK
5
6D
330
46
100
AcDbEntity
8
0
100
AcDbBlockEnd
0
ENDSEC
0
SECTION
2
ENTITIES
0
DIMENSION
5
6E
100
AcDbEntity
8
dimensions
6
ByLayer
62
256
370
-1
100
AcDbDimension
2
*D1
10
1843.6
20
658.7
30
0
11
963.6
21
658.7
31
0
70
33
71
5
3
Standard
53
0
210
0
220
0
230
1
100
AcDbAlignedDimension
13
83.6
23
620.7
33
0
14
1843.6
24
620.7
34
0
0
DIMENSION
5
6F
100
AcDbEntity
8
dimensions
6
ByLayer
62
256
370
-1
100
AcDbDimension
2
*D2
10
1843.6
20
28.5
30
0
11
963.6
21
28.5
31
0
70
33
71
5
3
Standard
53
0
210
0
220
0
230
1
100
AcDbAlignedDimension
13
83.6
23
66.5
33
0
14
1843.6
24
66.5
34
0
0
DIMENSION
5
70
100
AcDbEntity
8
dimensions
6
ByLayer
62
256
370
-1
100
AcDbDimension
2
*D3
10
28.5
20
83.6
30
0
11
28.5
21
343.6
31
0
70
33
71
5
3
Standard
53
0
210
0
220
0
230
1
100
AcDbAlignedDimension
13
66.5
23
603.6
33
0
14
66.5
24
83.6
34
0
0
DIMENSION
5
71
100
AcDbEntity
8
dimensions
6
ByLayer
62
256
370
-1
100
AcDbDimension
2
*D4
10
1898.7
20
83.6
30
0
11
1898.7
21
343.6
31
0
70
33
71
5
3
Standard
53
0
210
0
220
0
230
1
100
AcDbAlignedDimension
13
1860.7
23
603.6
33
0
14
1860.7
24
83.6
34
0
0
LWPOLYLINE
5
72
100
AcDbEntity
8
walls
6
ByLayer
62
256
370
-1
100
AcDbPolyline
90
12
70
1
39
-1
10
1843.60098621
20
603.61
10
1843.60998621
20
603.61
10
1843.60998621
20
83.59
10
83.58998621
20
83.59
10
83.58998621
20
83.599
10
78.61428621
20
83.599
10
78.61428621
20
95.601
10
83.58998621
20
95.601
10
83.58998621
20
603.61
10
83.59898621
20
603.61
10
83.59898621
20
615.601
10
1843.60098621
20
615.601
0
LWPOLYLINE
5
73
100
AcDbEntity
8
walls
6
ByLayer
62
256
370
-1
100
AcDbPolyline
90
4
70
1
39
-1
10
1838.61628621
20
95.599
10
1838.61628621
20
83.6
10
1843.59998621
20
83.6
10
1843.59998621
20
95.599
0
LWPOLYLINE
5
74
100
AcDbEntity
8
walls
6
ByLayer
62
256
370
-1
100
AcDbPolyline
90
44
70
1
39
-1
10
577.52868621
20
471.599
10
393.07098621
20
471.599
10
393.07098621
20
95.601
10
673.06898621
20
95.601
10
673.06898621
20
471.599
10
657.52868621
20
471.599
10
657.52868621
20
483.601
10
685.07098621
20
483.601
10
685.07098621
20
363.601
10
692.92598621
20
363.601
10
692.92598621
20
351.599
10
685.07098621
20
351.599
10
685.07098621
20
95.601
10
961.18888621
20
95.601
10
961.18888621
20
351.599
10
772.92588621
20
351.599
10
772.92588621
20
363.601
10
987.85858621
20
363.601
10
987.85858621
20
351.599
10
973.19088621
20
351.599
10
973.19088621
20
95.601
10
1253.18888621
20
95.601
10
1253.18888621
20
351.599
10
1067.85858621
20
351.599
10
1067.85858621
20
363.601
10
1279.39728621
20
363.601
10
1279.39728621
20
351.599
10
1265.19088621
20
351.599
10
1265.19088621
20
95.601
10
1545.18888621
20
95.601
10
1545.18888621
20
351.599
10
1359.39728621
20
351.599
10
1359.39728621
20
363.601
10
1557.19088621
20
363.601
10
1557.19088621
20
95.601
10
1831.59898621
20
95.601
10
1831.59898621
20
603.599
10
95.60098621
20
603.599
10
95.60098621
20
95.601
10
381.06898621
20
95.601
10
381.06898621
20
471.599
10
370.55148621
20
471.599
10
370.55148621
20
483.601
10
577.52868621
20
483.601
0
LWPOLYLINE
5
75
100
AcDbEntity
8
walls
6
ByLayer
62
256
370
-1
100
AcDbPolyline
90
8
70
1
39
-1
10
1830.19088621
20
440.9108
10
1540.19088621
20
440.9108
10
925.06898621
20
438.9864
10
925.03138621
20
450.9883
10
1540.15328621
20
452.9128
10
1540.18888621
20
441.5492
10
1540.18888621
20
452.9128
10
1830.19088621
20
452.9128
0
LWPOLYLINE
5
76
100
AcDbEntity
8
walls
6
ByLayer
62
256
370
-1
100
AcDbPolyline
90
4
70
1
39
-1
10
290.55148621
20
471.599
10
96.06898621
20
471.599
10
96.06898621
20
483.601
10
290.55148621
20
483.601
0
CIRCLE
5
77
100
AcDbEntity
8
symbols
6
ByLayer
62
256
370
-1
100
AcDbCircle
10
187.60001336
20
98.59999918
40
3
0
CIRCLE
5
78
100
AcDbEntity
8
symbols
6
ByLayer
62
256
370
-1
100
AcDbCircle
10
98.60001336
20
98.59999918
40
3
0
CIRCLE
5
79
100
AcDbEntity
8
symbols
6
ByLayer
62
256
370
-1
100
AcDbCircle
10
98.60001336
20
300.59999918
40
3
0
CIRCLE
5
7A
100
AcDbEntity
8
symbols
6
ByLayer
62
256
370
-1
100
AcDbCircle
10
187.60001336
20
300.59999918
40
3
0
LWPOLYLINE
5
7B
100
AcDbEntity
8
symbols
6
ByLayer
62
256
370
-1
100
AcDbPolyline
90
44
70
1
39
-1
10
186.59999621
20
295.6
10
186.54764296
20
296.24882078
10
186.39607355
20
296.86430938
10
186.15352348
20
297.4382303
10
185.82822824
20
297.96234805
10
185.42842333
20
298.42842712
10
184.96234425
20
298.82823203
10
184.43822651
20
299.15352727
10
183.86430558
20
299.39607734
10
183.24881698
20
299.54764675
10
182.59999621
20
299.6
10
103.59999621
20
299.6
10
102.95117543
20
299.54764675
10
102.33568683
20
299.39607734
10
101.76176591
20
299.15352727
10
101.23764816
20
298.82823203
10
100.77156908
20
298.42842712
10
100.37176417
20
297.96234805
10
100.04646894
20
297.4382303
10
99.80391886
20
296.86430938
10
99.65234945
20
296.24882078
10
99.59999621
20
295.6
10
99.59999621
20
103.6
10
99.65234945
20
102.95117922
10
99.80391886
20
102.33569062
10
100.04646894
20
101.7617697
10
100.37176417
20
101.23765195
10
100.77156908
20
100.77157288
10
101.23764816
20
100.37176797
10
101.76176591
20
100.04647273
10
102.33568683
20
99.80392266
10
102.95117543
20
99.65235325
10
103.59999621
20
99.6
10
182.59999621
20
99.6
10
183.24881698
20
99.65235325
10
183.86430558
20
99.80392266
10
184.43822651
20
100.04647273
10
184.96234425
20
100.37176797
10
185.42842333
20
100.77157288
10
185.82822824
20
101.23765195
10
186.15352348
20
101.7617697
10
186.39607355
20
102.33569062
10
186.54764296
20
102.95117922
10
186.59999621
20
103.6
0
CIRCLE
5
7C
100
AcDbEntity
8
symbols
6
ByLayer
62
256
370
-1
100
AcDbCircle
10
187.60001336
20
98.59999918
40
3
0
CIRCLE
5
7D
100
AcDbEntity
8
symbols
6
ByLayer
62
256
370
-1
100
AcDbCircle
10
98.60001336
20
98.59999918
40
3
0
CIRCLE
5
7E
100
AcDbEntity
8
symbols
6
ByLayer
62
256
370
-1
100
AcDbCircle
10
98.60001336
20
300.59999918
40
3
0
CIRCLE
5
7F
100
AcDbEntity
8
symbols
6
ByLayer
62
256
370
-1
100
AcDbCircle
10
187.60001336
20
300.59999918
40
3
0
LWPOLYLINE
5
80
100
AcDbEntity
8
symbols
6
ByLayer
62
256
370
-1
100
AcDbPolyline
90
2
70
0
39
-1
10
188.59999621
20
297.77
10
188.59999621
20
101.43
0
LWPOLYLINE
5
81
100
AcDbEntity
8
symbols
6
ByLayer
62
256
370
-1
100
AcDbPolyline
90
2
70
0
39
-1
10
186.59999621
20
101.43
10
186.59999621
20
103.6
0
LWPOLYLINE
5
82
100
AcDbEntity
8
symbols
6
ByLayer
62
256
370
-1
100
AcDbPolyline
90
2
70
0
39
-1
10
186.59999621
20
297.77
10
186.59999621
20
295.6
0
LWPOLYLINE
5
83
100
AcDbEntity
8
symbols
6
ByLayer
62
256
370
-1
100
AcDbPolyline
90
2
70
0
39
-1
10
97.59999621
20
297.77
10
97.59999621
20
101.43
0
LWPOLYLINE
5
84
100
AcDbEntity
8
symbols
6
ByLayer
62
256
370
-1
100
AcDbPolyline
90
2
70
0
39
-1
10
99.59999621
20
101.43
10
99.59999621
20
103.6
0
LWPOLYLINE
5
85
100
AcDbEntity
8
symbols
6
ByLayer
62
256
370
-1
100
AcDbPolyline
90
2
70
0
39
-1
10
99.59999621
20
297.77
10
99.59999621
20
295.6
0
LWPOLYLINE
5
86
100
AcDbEntity
8
symbols
6
ByLayer
62
256
370
-1
100
AcDbPolyline
90
2
70
0
39
-1
10
184.76999621
20
301.6
10
101.42999621
20
301.6
0
LWPOLYLINE
5
87
100
AcDbEntity
8
symbols
6
ByLayer
62
256
370
-1
100
AcDbPolyline
90
2
70
0
39
-1
10
184.76999621
20
299.6
10
182.59999621
20
299.6
0
LWPOLYLINE
5
88
100
AcDbEntity
8
symbols
6
ByLayer
62
256
370
-1
100
AcDbPolyline
90
2
70
0
39
-1
10
101.42999621
20
299.6
10
103.59999621
20
299.6
0
LWPOLYLINE
5
89
100
AcDbEntity
8
symbols
6
ByLayer
62
256
370
-1
100
AcDbPolyline
90
2
70
0
39
-1
10
101.42999621
20
97.6
10
184.76999621
20
97.6
0
LWPOLYLINE
5
8A
100
AcDbEntity
8
symbols
6
ByLayer
62
256
370
-1
100
AcDbPolyline
90
2
70
0
39
-1
10
184.76999621
20
99.6
10
182.59999621
20
99.6
0
LWPOLYLINE
5
8B
100
AcDbEntity
8
symbols
6
ByLayer
62
256
370
-1
100
AcDbPolyline
90
2
70
0
39
-1
10
101.42999621
20
99.6
10
103.59999621
20
99.6
0
LWPOLYLINE
5
8C
100
AcDbEntity
8
symbols
6
ByLayer
62
256
370
-1
100
AcDbPolyline
90
2
70
0
39
-1
10
188.59999621
20
145.52
10
186.59999621
20
145.52
0
LWPOLYLINE
5
8D
100
AcDbEntity
8
symbols
6
ByLayer
62
256
370
-1
100
AcDbPolyline
90
2
70
0
39
-1
10
188.59999621
20
220.4
10
186.59999621
20
220.4
0
LWPOLYLINE
5
8E
100
AcDbEntity
8
symbols
6
ByLayer
62
256
370
-1
100
AcDbPolyline
90
4
70
0
39
-1
10
188.59999621
20
272.4
10
190.59999621
20
272.4
10
190.59999621
20
241.2
10
188.59999621
20
241.2
0
LWPOLYLINE
5
8F
100
AcDbEntity
8
symbols
6
ByLayer
62
256
370
-1
100
AcDbPolyline
90
44
70
1
39
-1
10
163.99999621
20
134.28
10
163.93455465
20
135.09102597
10
163.74509289
20
135.86038672
10
163.4419053
20
136.57778787
10
163.03528625
20
137.23293506
10
162.53553011
20
137.81553391
10
161.95293127
20
138.31529004
10
161.29778408
20
138.72190909
10
160.58038293
20
139.02509668
10
159.81102218
20
139.21455844
10
158.99999621
20
139.28
10
111.04999621
20
143.44
10
110.23897024
20
143.37455844
10
109.46960949
20
143.18509668
10
108.75220833
20
142.88190909
10
108.09706115
20
142.47529004
10
107.5144623
20
141.97553391
10
107.01470617
20
141.39293506
10
106.60808712
20
140.73778787
10
106.30489953
20
140.02038672
10
106.11543777
20
139.25102597
10
106.04999621
20
138.44
10
104.14999621
20
113.08
10
104.21543777
20
112.26897403
10
104.40489953
20
111.49961328
10
104.70808712
20
110.78221213
10
105.11470617
20
110.12706494
10
105.6144623
20
109.54446609
10
106.19706115
20
109.04470996
10
106.85220833
20
108.63809091
10
107.56960949
20
108.33490332
10
108.33897024
20
108.14544156
10
109.14999621
20
108.08
10
157.09999621
20
103.92
10
157.91102218
20
103.98544156
10
158.68038293
20
104.17490332
10
159.39778408
20
104.47809091
10
160.05293127
20
104.88470996
10
160.63553011
20
105.38446609
10
161.13528625
20
105.96706494
10
161.5419053
20
106.62221213
10
161.84509289
20
107.33961328
10
162.03455465
20
108.10897403
10
162.09999621
20
108.92
0
CIRCLE
5
90
100
AcDbEntity
8
symbols
6
ByLayer
62
256
370
-1
100
AcDbCircle
10
485.06995354
20
98.59999918
40
3
0
CIRCLE
5
91
100
AcDbEntity
8
symbols
6
ByLayer
62
256
370
-1
100
AcDbCircle
10
396.06995354
20
98.59999918
40
3
0
CIRCLE
5
92
100
AcDbEntity
8
symbols
6
ByLayer
62
256
370
-1
100
AcDbCircle
10
396.06995354
20
300.59999918
40
3
0
CIRCLE
5
93
100
AcDbEntity
8
symbols
6
ByLayer
62
256
370
-1
100
AcDbCircle
10
485.06995354
20
300.59999918
40
3
0
LWPOLYLINE
5
94
100
AcDbEntity
8
symbols
6
ByLayer
62
256
370
-1
100
AcDbPolyline
90
44
70
1
39
-1
10
484.06994621
20
295.6
10
484.01759296
20
296.24882078
10
483.86602355
20
296.86430938
10
483.62347348
20
297.4382303
10
483.29817824
20
297.96234805
10
482.89837333
20
298.42842712
10
482.43229425
20
298.82823203
10
481.90817651
20
299.15352727
10
481.33425558
20
299.39607734
10
480.71876698
20
299.54764675
10
480.06994621
20
299.6
10
401.06994621
20
299.6
10
400.42112543
20
299.54764675
10
399.80563683
20
299.39607734
10
399.23171591
20
299.15352727
10
398.70759816
20
298.82823203
10
398.24151908
20
298.42842712
10
397.84171417
20
297.96234805
10
397.51641894
20
297.4382303
10
397.27386886
20
296.86430938
10
397.12229945
20
296.24882078
10
397.06994621
20
295.6
10
397.06994621
20
103.6
10
397.12229945
20
102.95117922
10
397.27386886
20
102.33569062
10
397.51641894
20
101.7617697
10
397.84171417
20
101.23765195
10
398.24151908
20
100.77157288
10
398.70759816
20
100.37176797
10
399.23171591
20
100.04647273
10
399.80563683
20
99.80392266
10
400.42112543
20
99.65235325
10
401.06994621
20
99.6
10
480.06994621
20
99.6
10
480.71876698
20
99.65235325
10
481.33425558
20
99.80392266
10
481.90817651
20
100.04647273
10
482.43229425
20
100.37176797
10
482.89837333
20
100.77157288
10
483.29817824
20
101.23765195
10
483.62347348
20
101.7617697
10
483.86602355
20
102.33569062
10
484.01759296
20
102.95117922
10
484.06994621
20
103.6
0
CIRCLE
5
95
100
AcDbEntity
8
symbols
6
ByLayer
62
256
370
-1
100
AcDbCircle
10
485.06995354
20
98.59999918
40
3
0
CIRCLE
5
96
100
AcDbEntity
8
symbols
6
ByLayer
62
256
370
-1
100
AcDbCircle
10
396.06995354
20
98.59999918
40
3
0
CIRCLE
5
97
100
AcDbEntity
8
symbols
6
ByLayer
62
256
370
-1
100
AcDbCircle
10
396.06995354
20
300.59999918
40
3
0
CIRCLE
5
98
100
AcDbEntity
8
symbols
6
ByLayer
62
256
370
-1
100
AcDbCircle
10
485.06995354
20
300.59999918
40
3
0
LWPOLYLINE
5
99
100
AcDbEntity
8
symbols
6
ByLayer
62
256
370
-1
100
AcDbPolyline
90
2
70
0
39
-1
10
486.06994621
20
297.77
10
486.06994621
20
101.43
0
LWPOLYLINE
5
9A
100
AcDbEntity
8
symbols
6
ByLayer
62
256
370
-1
100
AcDbPolyline
90
2
70
0
39
-1
10
484.06994621
20
101.43
10
484.06994621
20
103.6
0
LWPOLYLINE
5
9B
100
AcDbEntity
8
symbols
6
ByLayer
62
256
370
-1
100
AcDbPolyline
90
2
70
0
39
-1
10
484.06994621
20
297.77
10
484.06994621
20
295.6
0
LWPOLYLINE
5
9C
100
AcDbEntity
8
symbols
6
ByLayer
62
256
370
-1
100
AcDbPolyline
90
2
70
0
39
-1
10
395.06994621
20
297.77
10
395.06994621
20
101.43
0
LWPOLYLINE
5
9D
100
AcDbEntity
8
symbols
6
ByLayer
62
256
370
-1
100
AcDbPolyline
90
2
70
0
39
-1
10
397.06994621
20
101.43
10
397.06994621
20
103.6
0
LWPOLYLINE
5
9E
100
AcDbEntity
8
symbols
6
ByLayer
62
256
370
-1
100
AcDbPolyline
90
2
70
0
39
-1
10
397.06994621
20
297.77
10
397.06994621
20
295.6
0
LWPOLYLINE
5
9F
100
AcDbEntity
8
symbols
6
ByLayer
62
256
370
-1
100
AcDbPolyline
90
2
70
0
39
-1
10
482.23994621
20
301.6
10
398.89994621
20
301.6
0
LWPOLYLINE
5
A0
100
AcDbEntity
8
symbols
6
ByLayer
62
256
370
-1
100
AcDbPolyline
90
2
70
0
39
-1
10
482.23994621
20
299.6
10
480.06994621
20
299.6
0
LWPOLYLINE
5
A1
100
AcDbEntity
8
symbols
6
ByLayer
62
256
370
-1
100
AcDbPolyline
90
2
70
0
39
-1
10
398.89994621
20
299.6
10
401.06994621
20
299.6
0
LWPOLYLINE
5
A2
100
AcDbEntity
8
symbols
6
ByLayer
62
256
370
-1
100
AcDbPolyline
90
2
70
0
39
-1
10
398.89994621
20
97.6
10
482.23994621
20
97.6
0
LWPOLYLINE
5
A3
100
AcDbEntity
8
symbols
6
ByLayer
62
256
370
-1
100
AcDbPolyline
90
2
70
0
39
-1
10
482.23994621
20
99.6
10
480.06994621
20
99.6
0
LWPOLYLINE
5
A4
100
AcDbEntity
8
symbols
6
ByLayer
62
256
370
-1
100
AcDbPolyline
90
2
70
0
39
-1
10
398.89994621
20
99.6
10
401.06994621
20
99.6
0
LWPOLYLINE
5
A5
100
AcDbEntity
8
symbols
6
ByLayer
62
256
370
-1
100
AcDbPolyline
90
2
70
0
39
-1
10
486.06994621
20
145.52
10
484.06994621
20
145.52
0
LWPOLYLINE
5
A6
100
AcDbEntity
8
symbols
6
ByLayer
62
256
370
-1
100
AcDbPolyline
90
2
70
0
39
-1
10
486.06994621
20
220.4
10
484.06994621
20
220.4
0
LWPOLYLINE
5
A7
100
AcDbEntity
8
symbols
6
ByLayer
62
256
370
-1
100
AcDbPolyline
90
4
70
0
39
-1
10
486.06994621
20
272.4
10
488.06994621
20
272.4
10
488.06994621
20
241.2
10
486.06994621
20
241.2
0
LWPOLYLINE
5
A8
100
AcDbEntity
8
symbols
6
ByLayer
62
256
370
-1
100
AcDbPolyline
90
44
70
1
39
-1
10
461.46994621
20
134.28
10
461.40450465
20
135.09102597
10
461.21504289
20
135.86038672
10
460.9118553
20
136.57778787
10
460.50523625
20
137.23293506
10
460.00548011
20
137.81553391
10
459.42288127
20
138.31529004
10
458.76773408
20
138.72190909
10
458.05033293
20
139.02509668
10
457.28097218
20
139.21455844
10
456.46994621
20
139.28
10
408.51994621
20
143.44
10
407.70892024
20
143.37455844
10
406.93955949
20
143.18509668
10
406.22215833
20
142.88190909
10
405.56701115
20
142.47529004
10
404.9844123
20
141.97553391
10
404.48465617
20
141.39293506
10
404.07803712
20
140.73778787
10
403.77484953
20
140.02038672
10
403.58538777
20
139.25102597
10
403.51994621
20
138.44
10
401.61994621
20
113.08
10
401.68538777
20
112.26897403
10
401.87484953
20
111.49961328
10
402.17803712
20
110.78221213
10
402.58465617
20
110.12706494
10
403.0844123
20
109.54446609
10
403.66701115
20
109.04470996
10
404.32215833
20
108.63809091
10
405.03955949
20
108.33490332
10
405.80892024
20
108.14544156
10
406.61994621
20
108.08
10
454.56994621
20
103.92
10
455.38097218
20
103.98544156
10
456.15033293
20
104.17490332
10
456.86773408
20
104.47809091
10
457.52288127
20
104.88470996
10
458.10548011
20
105.38446609
10
458.60523625
20
105.96706494
10
459.0118553
20
106.62221213
10
459.31504289
20
107.33961328
10
459.50450465
20
108.10897403
10
459.56994621
20
108.92
0
CIRCLE
5
A9
100
AcDbEntity
8
symbols
6
ByLayer
62
256
370
-1
100
AcDbCircle
10
869.18984566
20
300.59999918
40
3
0
CIRCLE
5
AA
100
AcDbEntity
8
symbols
6
ByLayer
62
256
370
-1
100
AcDbCircle
10
958.18984185
20
300.59999918
40
3
0
CIRCLE
5
AB
100
AcDbEntity
8
symbols
6
ByLayer
62
256
370
-1
100
AcDbCircle
10
958.18984185
20
98.59999918
40
3
0
CIRCLE
5
AC
100
AcDbEntity
8
symbols
6
ByLayer
62
256
370
-1
100
AcDbCircle
10
869.18984566
20
98.59999918
40
3
0
LWPOLYLINE
5
AD
100
AcDbEntity
8
symbols
6
ByLayer
62
256
370
-1
100
AcDbPolyline
90
44
70
1
39
-1
10
870.18984621
20
103.6
10
870.24219945
20
102.95117922
10
870.39376886
20
102.33569062
10
870.63631894
20
101.7617697
10
870.96161417
20
101.23765195
10
871.36141908
20
100.77157288
10
871.82749816
20
100.37176797
10
872.35161591
20
100.04647273
10
872.92553683
20
99.80392266
10
873.54102543
20
99.65235325
10
874.18984621
20
99.6
10
953.18984621
20
99.6
10
953.83866698
20
99.65235325
10
954.45415558
20
99.80392266
10
955.02807651
20
100.04647273
10
955.55219425
20
100.37176797
10
956.01827333
20
100.77157288
10
956.41807824
20
101.23765195
10
956.74337348
20
101.7617697
10
956.98592355
20
102.33569062
10
957.13749296
20
102.95117922
10
957.18984621
20
103.6
10
957.18984621
20
295.6
10
957.13749296
20
296.24882078
10
956.98592355
20
296.86430938
10
956.74337348
20
297.4382303
10
956.41807824
20
297.96234805
10
956.01827333
20
298.42842712
10
955.55219425
20
298.82823203
10
955.02807651
20
299.15352727
10
954.45415558
20
299.39607734
10
953.83866698
20
299.54764675
10
953.18984621
20
299.6
10
874.18984621
20
299.6
10
873.54102543
20
299.54764675
10
872.92553683
20
299.39607734
10
872.35161591
20
299.15352727
10
871.82749816
20
298.82823203
10
871.36141908
20
298.42842712
10
870.96161417
20
297.96234805
10
870.63631894
20
297.4382303
10
870.39376886
20
296.86430938
10
870.24219945
20
296.24882078
10
870.18984621
20
295.6
0
CIRCLE
5
AE
100
AcDbEntity
8
symbols
6
ByLayer
62
256
370
-1
100
AcDbCircle
10
869.18984566
20
300.59999918
40
3
0
CIRCLE
5
AF
100
AcDbEntity
8
symbols
6
ByLayer
62
256
370
-1
100
AcDbCircle
10
958.18984185
20
300.59999918
40
3
0
CIRCLE
5
B0
100
AcDbEntity
8
symbols
6
ByLayer
62
256
370
-1
100
AcDbCircle
10
958.18984185
20
98.59999918
40
3
0
CIRCLE
5
B1
100
AcDbEntity
8
symbols
6
ByLayer
62
256
370
-1
100
AcDbCircle
10
869.18984566
20
98.59999918
40
3
0
LWPOLYLINE
5
B2
100
AcDbEntity
8
symbols
6
ByLayer
62
256
370
-1
100
AcDbPolyline
90
2
70
0
39
-1
10
868.18984621
20
101.43
10
868.18984621
20
297.77
0
LWPOLYLINE
5
B3
100
AcDbEntity
8
symbols
6
ByLayer
62
256
370
-1
100
AcDbPolyline
90
2
70
0
39
-1
10
870.18984621
20
297.77
10
870.18984621
20
295.6
0
LWPOLYLINE
5
B4
100
AcDbEntity
8
symbols
6
ByLayer
62
256
370
-1
100
AcDbPolyline
90
2
70
0
39
-1
10
870.18984621
20
101.43
10
870.18984621
20
103.6
0
LWPOLYLINE
5
B5
100
AcDbEntity
8
symbols
6
ByLayer
62
256
370
-1
100
AcDbPolyline
90
2
70
0
39
-1
10
959.18984621
20
101.43
10
959.18984621
20
297.77
0
LWPOLYLINE
5
B6
100
AcDbEntity
8
symbols
6
ByLayer
62
256
370
-1
100
AcDbPolyline
90
2
70
0
39
-1
10
957.18984621
20
297.77
10
957.18984621
20
295.6
0
LWPOLYLINE
5
B7
100
AcDbEntity
8
symbols
6
ByLayer
62
256
370
-1
100
AcDbPolyline
90
2
70
0
39
-1
10
957.18984621
20
101.43
10
957.18984621
20
103.6
0
LWPOLYLINE
5
B8
100
AcDbEntity
8
symbols
6
ByLayer
62
256
370
-1
100
AcDbPolyline
90
2
70
0
39
-1
10
872.01984621
20
97.6
10
955.35984621
20
97.6
0
LWPOLYLINE
5
B9
100
AcDbEntity
8
symbols
6
ByLayer
62
256
370
-1
100
AcDbPolyline
90
2
70
0
39
-1
10
872.01984621
20
99.6
10
874.18984621
20
99.6
0
LWPOLYLINE
5
BA
100
AcDbEntity
8
symbols
6
ByLayer
62
256
370
-1
100
AcDbPolyline
90
2
70
0
39
-1
10
955.35984621
20
99.6
10
953.18984621
20
99.6
0
LWPOLYLINE
5
BB
100
AcDbEntity
8
symbols
6
ByLayer
62
256
370
-1
100
AcDbPolyline
90
2
70
0
39
-1
10
955.35984621
20
301.6
10
872.01984621
20
301.6
0
LWPOLYLINE
5
BC
100
AcDbEntity
8
symbols
6
ByLayer
62
256
370
-1
100
AcDbPolyline
90
2
70
0
39
-1
10
872.01984621
20
299.6
10
874.18984621
20
299.6
0
LWPOLYLINE
5
BD
100
AcDbEntity
8
symbols
6
ByLayer
62
256
370
-1
100
AcDbPolyline
90
2
70
0
39
-1
10
955.35984621
20
299.6
10
953.18984621
20
299.6
0
LWPOLYLINE
5
BE
100
AcDbEntity
8
symbols
6
ByLayer
62
256
370
-1
100
AcDbPolyline
90
2
70
0
39
-1
10
868.18984621
20
253.68
10
870.18984621
20
253.68
0
LWPOLYLINE
5
BF
100
AcDbEntity
8
symbols
6
ByLayer
62
256
370
-1
100
AcDbPolyline
90
2
70
0
39
-1
10
868.18984621
20
178.8
10
870.18984621
20
178.8
0
LWPOLYLINE
5
C0
100
AcDbEntity
8
symbols
6
ByLayer
62
256
370
-1
100
AcDbPolyline
90
4
70
0
39
-1
10
868.18984621
20
126.8
10
866.18984621
20
126.8
10
866.18984621
20
158
10
868.18984621
20
158
0
LWPOLYLINE
5
C1
100
AcDbEntity
8
symbols
6
ByLayer
62
256
370
-1
100
AcDbPolyline
90
44
70
1
39
-1
10
892.78984621
20
264.92
10
892.85528777
20
264.10897403
10
893.04474953
20
263.33961328
10
893.34793712
20
262.62221213
10
893.75455617
20
261.96706494
10
894.2543123
20
261.38446609
10
894.83691115
20
260.88470996
10
895.49205833
20
260.47809091
10
896.20945949
20
260.17490332
10
896.97882024
20
259.98544156
10
897.78984621
20
259.92
10
945.73984621
20
255.76
10
946.55087218
20
255.82544156
10
947.32023293
20
256.01490332
10
948.03763408
20
256.31809091
10
948.69278127
20
256.72470996
10
949.27538011
20
257.22446609
10
949.77513625
20
257.80706494
10
950.1817553
20
258.46221213
10
950.48494289
20
259.17961328
10
950.67440465
20
259.94897403
10
950.73984621
20
260.76
10
952.63984621
20
286.12
10
952.57440465
20
286.93102597
10
952.38494289
20
287.70038672
10
952.0817553
20
288.41778787
10
951.67513625
20
289.07293506
10
951.17538011
20
289.65553391
10
950.59278127
20
290.15529004
10
949.93763408
20
290.56190909
10
949.22023293
20
290.86509668
10
948.45087218
20
291.05455844
10
947.63984621
20
291.12
10
899.68984621
20
295.28
10
898.87882024
20
295.21455844
10
898.10945949
20
295.02509668
10
897.39205833
20
294.72190909
10
896.73691115
20
294.31529004
10
896.1543123
20
293.81553391
10
895.65455617
20
293.23293506
10
895.24793712
20
292.57778787
10
894.94474953
20
291.86038672
10
894.75528777
20
291.09102597
10
894.68984621
20
290.28
0
CIRCLE
5
C2
100
AcDbEntity
8
symbols
6
ByLayer
62
256
370
-1
100
AcDbCircle
10
1161.18985711
20
300.59999918
40
3
0
CIRCLE
5
C3
100
AcDbEntity
8
symbols
6
ByLayer
62
256
370
-1
100
AcDbCircle
10
1250.18985711
20
300.59999918
40
3
0
CIRCLE
5
C4
100
AcDbEntity
8
symbols
6
ByLayer
62
256
370
-1
100
AcDbCircle
10
1250.18985711
20
98.59999918
40
3
0
CIRCLE
5
C5
100
AcDbEntity
8
symbols
6
ByLayer
62
256
370
-1
100
AcDbCircle
10
1161.18985711
20
98.59999918
40
3
0
LWPOLYLINE
5
C6
100
AcDbEntity
8
symbols
6
ByLayer
62
256
370
-1
100
AcDbPolyline
90
44
70
1
39
-1
10
1162.18984621
20
103.6
10
1162.24219945
20
102.95117922
10
1162.39376886
20
102.33569062
10
1162.63631894
20
101.7617697
10
1162.96161417
20
101.23765195
10
1163.36141908
20
100.77157288
10
1163.82749816
20
100.37176797
10
1164.35161591
20
100.04647273
10
1164.92553683
20
99.80392266
10
1165.54102543
20
99.65235325
10
1166.18984621
20
99.6
10
1245.18984621
20
99.6
10
1245.83866698
20
99.65235325
10
1246.45415558
20
99.80392266
10
1247.02807651
20
100.04647273
10
1247.55219425
20
100.37176797
10
1248.01827333
20
100.77157288
10
1248.41807824
20
101.23765195
10
1248.74337348
20
101.7617697
10
1248.98592355
20
102.33569062
10
1249.13749296
20
102.95117922
10
1249.18984621
20
103.6
10
1249.18984621
20
295.6
10
1249.13749296
20
296.24882078
10
1248.98592355
20
296.86430938
10
1248.74337348
20
297.4382303
10
1248.41807824
20
297.96234805
10
1248.01827333
20
298.42842712
10
1247.55219425
20
298.82823203
10
1247.02807651
20
299.15352727
10
1246.45415558
20
299.39607734
10
1245.83866698
20
299.54764675
10
1245.18984621
20
299.6
10
1166.18984621
20
299.6
10
1165.54102543
20
299.54764675
10
1164.92553683
20
299.39607734
10
1164.35161591
20
299.15352727
10
1163.82749816
20
298.82823203
10
1163.36141908
20
298.42842712
10
1162.96161417
20
297.96234805
10
1162.63631894
20
297.4382303
10
1162.39376886
20
296.86430938
10
1162.24219945
20
296.24882078
10
1162.18984621
20
295.6
0
CIRCLE
5
C7
100
AcDbEntity
8
symbols
6
ByLayer
62
256
370
-1
100
AcDbCircle
10
1161.18985711
20
300.59999918
40
3
0
CIRCLE
5
C8
100
AcDbEntity
8
symbols
6
ByLayer
62
256
370
-1
100
AcDbCircle
10
1250.18985711
20
300.59999918
40
3
0
CIRCLE
5
C9
100
AcDbEntity
8
symbols
6
ByLayer
62
256
370
-1
100
AcDbCircle
10
1250.18985711
20
98.59999918
40
3
0
CIRCLE
5
CA
100
AcDbEntity
8
symbols
6
ByLayer
62
256
370
-1
100
AcDbCircle
10
1161.18985711
20
98.59999918
40
3
0
LWPOLYLINE
5
CB
100
AcDbEntity
8
symbols
6
ByLayer
62
256
370
-1
100
AcDbPolyline
90
2
70
0
39
-1
10
1160.18984621
20
101.43
10
1160.18984621
20
297.77
0
LWPOLYLINE
5
CC
100
AcDbEntity
8
symbols
6
ByLayer
62
256
370
-1
100
AcDbPolyline
90
2
70
0
39
-1
10
1162.18984621
20
297.77
10
1162.18984621
20
295.6
0
LWPOLYLINE
5
CD
100
AcDbEntity
8
symbols
6
ByLayer
62
256
370
-1
100
AcDbPolyline
90
2
70
0
39
-1
10
1162.18984621
20
101.43
10
1162.18984621
20
103.6
0
LWPOLYLINE
5
CE
100
AcDbEntity
8
symbols
6
ByLayer
62
256
370
-1
100
AcDbPolyline
90
2
70
0
39
-1
10
1251.18984621
20
101.43
10
1251.18984621
20
297.77
0
LWPOLYLINE
5
CF
100
AcDbEntity
8
symbols
6
ByLayer
62
256
370
-1
100
AcDbPolyline
90
2
70
0
39
-1
10
1249.18984621
20
297.77
10
1249.18984621
20
295.6
0
LWPOLYLINE
5
D0
100
AcDbEntity
8
symbols
6
ByLayer
62
256
370
-1
100
AcDbPolyline
90
2
70
0
39
-1
10
1249.18984621
20
101.43
10
1249.18984621
20
103.6
0
LWPOLYLINE
5
D1
100
AcDbEntity
8
symbols
6
ByLayer
62
256
370
-1
100
AcDbPolyline
90
2
70
0
39
-1
10
1164.01984621
20
97.6
10
1247.35984621
20
97.6
0
LWPOLYLINE
5
D2
100
AcDbEntity
8
symbols
6
ByLayer
62
256
370
-1
100
AcDbPolyline
90
2
70
0
39
-1
10
1164.01984621
20
99.6
10
1166.18984621
20
99.6
0
LWPOLYLINE
5
D3
100
AcDbEntity
8
symbols
6
ByLayer
62
256
370
-1
100
AcDbPolyline
90
2
70
0
39
-1
10
1247.35984621
20
99.6
10
1245.18984621
20
99.6
0
LWPOLYLINE
5
D4
100
AcDbEntity
8
symbols
6
ByLayer
62
256
370
-1
100
AcDbPolyline
90
2
70
0
39
-1
10
1247.35984621
20
301.6
10
1164.01984621
20
301.6
0
LWPOLYLINE
5
D5
100
AcDbEntity
8
symbols
6
ByLayer
62
256
370
-1
100
AcDbPolyline
90
2
70
0
39
-1
10
1164.01984621
20
299.6
10
1166.18984621
20
299.6
0
LWPOLYLINE
5
D6
100
AcDbEntity
8
symbols
6
ByLayer
62
256
370
-1
100
AcDbPolyline
90
2
70
0
39
-1
10
1247.35984621
20
299.6
10
1245.18984621
20
299.6
0
LWPOLYLINE
5
D7
100
AcDbEntity
8
symbols
6
ByLayer
62
256
370
-1
100
AcDbPolyline
90
2
70
0
39
-1
10
1160.18984621
20
253.68
10
1162.18984621
20
253.68
0
LWPOLYLINE
5
D8
100
AcDbEntity
8
symbols
6
ByLayer
62
256
370
-1
100
AcDbPolyline
90
2
70
0
39
-1
10
1160.18984621
20
178.8
10
1162.18984621
20
178.8
0
LWPOLYLINE
5
D9
100
AcDbEntity
8
symbols
6
ByLayer
62
256
370
-1
100
AcDbPolyline
90
4
70
0
39
-1
10
1160.18984621
20
126.8
10
1158.18984621
20
126.8
10
1158.18984621
20
158
10
1160.18984621
20
158
0
LWPOLYLINE
5
DA
100
AcDbEntity
8
symbols
6
ByLayer
62
256
370
-1
100
AcDbPolyline
90
44
70
1
39
-1
10
1184.78984621
20
264.92
10
1184.85528777
20
264.10897403
10
1185.04474953
20
263.33961328
10
1185.34793712
20
262.62221213
10
1185.75455617
20
261.96706494
10
1186.2543123
20
261.38446609
10
1186.83691115
20
260.88470996
10
1187.49205833
20
260.47809091
10
1188.20945949
20
260.17490332
10
1188.97882024
20
259.98544156
10
1189.78984621
20
259.92
10
1237.73984621
20
255.76
10
1238.55087218
20
255.82544156
10
1239.32023293
20
256.01490332
10
1240.03763408
20
256.31809091
10
1240.69278127
20
256.72470996
10
1241.27538011
20
257.22446609
10
1241.77513625
20
257.80706494
10
1242.1817553
20
258.46221213
10
1242.48494289
20
259.17961328
10
1242.67440465
20
259.94897403
10
1242.73984621
20
260.76
10
1244.63984621
20
286.12
10
1244.57440465
20
286.93102597
10
1244.38494289
20
287.70038672
10
1244.0817553
20
288.41778787
10
1243.67513625
20
289.07293506
10
1243.17538011
20
289.65553391
10
1242.59278127
20
290.15529004
10
1241.93763408
20
290.56190909
10
1241.22023293
20
290.86509668
10
1240.45087218
20
291.05455844
10
1239.63984621
20
291.12
10
1191.68984621
20
295.28
10
1190.87882024
20
295.21455844
10
1190.10945949
20
295.02509668
10
1189.39205833
20
294.72190909
10
1188.73691115
20
294.31529004
10
1188.1543123
20
293.81553391
10
1187.65455617
20
293.23293506
10
1187.24793712
20
292.57778787
10
1186.94474953
20
291.86038672
10
1186.75528777
20
291.09102597
10
1186.68984621
20
290.28
0
CIRCLE
5
DB
100
AcDbEntity
8
symbols
6
ByLayer
62
256
370
-1
100
AcDbCircle
10
1453.18985711
20
348.59999918
40
3
0
CIRCLE
5
DC
100
AcDbEntity
8
symbols
6
ByLayer
62
256
370
-1
100
AcDbCircle
10
1542.18985711
20
348.59999918
40
3
0
CIRCLE
5
DD
100
AcDbEntity
8
symbols
6
ByLayer
62
256
370
-1
100
AcDbCircle
10
1542.18985711
20
146.59999918
40
3
0
CIRCLE
5
DE
100
AcDbEntity
8
symbols
6
ByLayer
62
256
370
-1
100
AcDbCircle
10
1453.18985711
20
146.59999918
40
3
0
LWPOLYLINE
5
DF
100
AcDbEntity
8
symbols
6
ByLayer
62
256
370
-1
100
AcDbPolyline
90
44
70
1
39
-1
10
1454.18984621
20
151.6
10
1454.24219945
20
150.95117922
10
1454.39376886
20
150.33569062
10
1454.63631894
20
149.7617697
10
1454.96161417
20
149.23765195
10
1455.36141908
20
148.77157288
10
1455.82749816
20
148.37176797
10
1456.35161591
20
148.04647273
10
1456.92553683
20
147.80392266
10
1457.54102543
20
147.65235325
10
1458.18984621
20
147.6
10
1537.18984621
20
147.6
10
1537.83866698
20
147.65235325
10
1538.45415558
20
147.80392266
10
1539.02807651
20
148.04647273
10
1539.55219425
20
148.37176797
10
1540.01827333
20
148.77157288
10
1540.41807824
20
149.23765195
10
1540.74337348
20
149.7617697
10
1540.98592355
20
150.33569062
10
1541.13749296
20
150.95117922
10
1541.18984621
20
151.6
10
1541.18984621
20
343.6
10
1541.13749296
20
344.24882078
10
1540.98592355
20
344.86430938
10
1540.74337348
20
345.4382303
10
1540.41807824
20
345.96234805
10
1540.01827333
20
346.42842712
10
1539.55219425
20
346.82823203
10
1539.02807651
20
347.15352727
10
1538.45415558
20
347.39607734
10
1537.83866698
20
347.54764675
10
1537.18984621
20
347.6
10
1458.18984621
20
347.6
10
1457.54102543
20
347.54764675
10
1456.92553683
20
347.39607734
10
1456.35161591
20
347.15352727
10
1455.82749816
20
346.82823203
10
1455.36141908
20
346.42842712
10
1454.96161417
20
345.96234805
10
1454.63631894
20
345.4382303
10
1454.39376886
20
344.86430938
10
1454.24219945
20
344.24882078
10
1454.18984621
20
343.6
0
CIRCLE
5
E0
100
AcDbEntity
8
symbols
6
ByLayer
62
256
370
-1
100
AcDbCircle
10
1453.18985711
20
348.59999918
40
3
0
CIRCLE
5
E1
100
AcDbEntity
8
symbols
6
ByLayer
62
256
370
-1
100
AcDbCircle
10
1542.18985711
20
348.59999918
40
3
0
CIRCLE
5
E2
100
AcDbEntity
8
symbols
6
ByLayer
62
256
370
-1
100
AcDbCircle
10
1542.18985711
20
146.59999918
40
3
0
CIRCLE
5
E3
100
AcDbEntity
8
symbols
6
ByLayer
62
256
370
-1
100
AcDbCircle
10
1453.18985711
20
146.59999918
40
3
0
LWPOLYLINE
5
E4
100
AcDbEntity
8
symbols
6
ByLayer
62
256
370
-1
100
AcDbPolyline
90
2
70
0
39
-1
10
1452.18984621
20
149.43
10
1452.18984621
20
345.77
0
LWPOLYLINE
5
E5
100
AcDbEntity
8
symbols
6
ByLayer
62
256
370
-1
100
AcDbPolyline
90
2
70
0
39
-1
10
1454.18984621
20
345.77
10
1454.18984621
20
343.6
0
LWPOLYLINE
5
E6
100
AcDbEntity
8
symbols
6
ByLayer
62
256
370
-1
100
AcDbPolyline
90
2
70
0
39
-1
10
1454.18984621
20
149.43
10
1454.18984621
20
151.6
0
LWPOLYLINE
5
E7
100
AcDbEntity
8
symbols
6
ByLayer
62
256
370
-1
100
AcDbPolyline
90
2
70
0
39
-1
10
1543.18984621
20
149.43
10
1543.18984621
20
345.77
0
LWPOLYLINE
5
E8
100
AcDbEntity
8
symbols
6
ByLayer
62
256
370
-1
100
AcDbPolyline
90
2
70
0
39
-1
10
1541.18984621
20
345.77
10
1541.18984621
20
343.6
0
LWPOLYLINE
5
E9
100
AcDbEntity
8
symbols
6
ByLayer
62
256
370
-1
100
AcDbPolyline
90
2
70
0
39
-1
10
1541.18984621
20
149.43
10
1541.18984621
20
151.6
0
LWPOLYLINE
5
EA
100
AcDbEntity
8
symbols
6
ByLayer
62
256
370
-1
100
AcDbPolyline
90
2
70
0
39
-1
10
1456.01984621
20
145.6
10
1539.35984621
20
145.6
0
LWPOLYLINE
5
EB
100
AcDbEntity
8
symbols
6
ByLayer
62
256
370
-1
100
AcDbPolyline
90
2
70
0
39
-1
10
1456.01984621
20
147.6
10
1458.18984621
20
147.6
0
LWPOLYLINE
5
EC
100
AcDbEntity
8
symbols
6
ByLayer
62
256
370
-1
100
AcDbPolyline
90
2
70
0
39
-1
10
1539.35984621
20
147.6
10
1537.18984621
20
147.6
0
LWPOLYLINE
5
ED
100
AcDbEntity
8
symbols
6
ByLayer
62
256
370
-1
100
AcDbPolyline
90
2
70
0
39
-1
10
1539.35984621
20
349.6
10
1456.01984621
20
349.6
0
LWPOLYLINE
5
EE
100
AcDbEntity
8
symbols
6
ByLayer
62
256
370
-1
100
AcDbPolyline
90
2
70
0
39
-1
10
1456.01984621
20
347.6
10
1458.18984621
20
347.6
0
LWPOLYLINE
5
EF
100
AcDbEntity
8
symbols
6
ByLayer
62
256
370
-1
100
AcDbPolyline
90
2
70
0
39
-1
10
1539.35984621
20
347.6
10
1537.18984621
20
347.6
0
LWPOLYLINE
5
F0
100
AcDbEntity
8
symbols
6
ByLayer
62
256
370
-1
100
AcDbPolyline
90
2
70
0
39
-1
10
1452.18984621
20
301.68
10
1454.18984621
20
301.68
0
LWPOLYLINE
5
F1
100
AcDbEntity
8
symbols
6
ByLayer
62
256
370
-1
100
AcDbPolyline
90
2
70
0
39
-1
10
1452.18984621
20
226.8
10
1454.18984621
20
226.8
0
LWPOLYLINE
5
F2
100
AcDbEntity
8
symbols
6
ByLayer
62
256
370
-1
100
AcDbPolyline
90
4
70
0
39
-1
10
1452.18984621
20
174.8
10
1450.18984621
20
174.8
10
1450.18984621
20
206
10
1452.18984621
20
206
0
LWPOLYLINE
5
F3
100
AcDbEntity
8
symbols
6
ByLayer
62
256
370
-1
100
AcDbPolyline
90
44
70
1
39
-1
10
1476.78984621
20
312.92
10
1476.85528777
20
312.10897403
10
1477.04474953
20
311.33961328
10
1477.34793712
20
310.62221213
10
1477.75455617
20
309.96706494
10
1478.2543123
20
309.38446609
10
1478.83691115
20
308.88470996
10
1479.49205833
20
308.47809091
10
1480.20945949
20
308.17490332
10
1480.97882024
20
307.98544156
10
1481.78984621
20
307.92
10
1529.73984621
20
303.76
10
1530.55087218
20
303.82544156
10
1531.32023293
20
304.01490332
10
1532.03763408
20
304.31809091
10
1532.69278127
20
304.72470996
10
1533.27538011
20
305.22446609
10
1533.77513625
20
305.80706494
10
1534.1817553
20
306.46221213
10
1534.48494289
20
307.17961328
10
1534.67440465
20
307.94897403
10
1534.73984621
20
308.76
10
1536.63984621
20
334.12
10
1536.57440465
20
334.93102597
10
1536.38494289
20
335.70038672
10
1536.0817553
20
336.41778787
10
1535.67513625
20
337.07293506
10
1535.17538011
20
337.65553391
10
1534.59278127
20
338.15529004
10
1533.93763408
20
338.56190909
10
1533.22023293
20
338.86509668
10
1532.45087218
20
339.05455844
10
1531.63984621
20
339.12
10
1483.68984621
20
343.28
10
1482.87882024
20
343.21455844
10
1482.10945949
20
343.02509668
10
1481.39205833
20
342.72190909
10
1480.73691115
20
342.31529004
10
1480.1543123
20
341.81553391
10
1479.65455617
20
341.23293506
10
1479.24793712
20
340.57778787
10
1478.94474953
20
339.86038672
10
1478.75528777
20
339.09102597
10
1478.68984621
20
338.28
0
CIRCLE
5
F4
100
AcDbEntity
8
symbols
6
ByLayer
62
256
370
-1
100
AcDbCircle
10
1828.60001336
20
98.59999918
40
3
0
CIRCLE
5
F5
100
AcDbEntity
8
symbols
6
ByLayer
62
256
370
-1
100
AcDbCircle
10
1739.60001336
20
98.59999918
40
3
0
CIRCLE
5
F6
100
AcDbEntity
8
symbols
6
ByLayer
62
256
370
-1
100
AcDbCircle
10
1739.60001336
20
300.59999918
40
3
0
CIRCLE
5
F7
100
AcDbEntity
8
symbols
6
ByLayer
62
256
370
-1
100
AcDbCircle
10
1828.60001336
20
300.59999918
40
3
0
LWPOLYLINE
5
F8
100
AcDbEntity
8
symbols
6
ByLayer
62
256
370
-1
100
AcDbPolyline
90
44
70
1
39
-1
10
1827.59999621
20
295.6
10
1827.54764296
20
296.24882078
10
1827.39607355
20
296.86430938
10
1827.15352348
20
297.4382303
10
1826.82822824
20
297.96234805
10
1826.42842333
20
298.42842712
10
1825.96234425
20
298.82823203
10
1825.43822651
20
299.15352727
10
1824.86430558
20
299.39607734
10
1824.24881698
20
299.54764675
10
1823.59999621
20
299.6
10
1744.59999621
20
299.6
10
1743.95117543
20
299.54764675
10
1743.33568683
20
299.39607734
10
1742.76176591
20
299.15352727
10
1742.23764816
20
298.82823203
10
1741.77156908
20
298.42842712
10
1741.37176417
20
297.96234805
10
1741.04646894
20
297.4382303
10
1740.80391886
20
296.86430938
10
1740.65234945
20
296.24882078
10
1740.59999621
20
295.6
10
1740.59999621
20
103.6
10
1740.65234945
20
102.95117922
10
1740.80391886
20
102.33569062
10
1741.04646894
20
101.7617697
10
1741.37176417
20
101.23765195
10
1741.77156908
20
100.77157288
10
1742.23764816
20
100.37176797
10
1742.76176591
20
100.04647273
10
1743.33568683
20
99.80392266
10
1743.95117543
20
99.65235325
10
1744.59999621
20
99.6
10
1823.59999621
20
99.6
10
1824.24881698
20
99.65235325
10
1824.86430558
20
99.80392266
10
1825.43822651
20
100.04647273
10
1825.96234425
20
100.37176797
10
1826.42842333
20
100.77157288
10
1826.82822824
20
101.23765195
10
1827.15352348
20
101.7617697
10
1827.39607355
20
102.33569062
10
1827.54764296
20
102.95117922
10
1827.59999621
20
103.6
0
CIRCLE
5
F9
100
AcDbEntity
8
symbols
6
ByLayer
62
256
370
-1
100
AcDbCircle
10
1828.60001336
20
98.59999918
40
3
0
CIRCLE
5
FA
100
AcDbEntity
8
symbols
6
ByLayer
62
256
370
-1
100
AcDbCircle
10
1739.60001336
20
98.59999918
40
3
0
CIRCLE
5
FB
100
AcDbEntity
8
symbols
6
ByLayer
62
256
370
-1
100
AcDbCircle
10
1739.60001336
20
300.59999918
40
3
0
CIRCLE
5
FC
100
AcDbEntity
8
symbols
6
ByLayer
62
256
370
-1
100
AcDbCircle
10
1828.60001336
20
300.59999918
40
3
0
LWPOLYLINE
5
FD
100
AcDbEntity
8
symbols
6
ByLayer
62
256
370
-1
100
AcDbPolyline
90
2
70
0
39
-1
10
1829.59999621
20
297.77
10
1829.59999621
20
101.43
0
LWPOLYLINE
5
FE
100
AcDbEntity
8
symbols
6
ByLayer
62
256
370
-1
100
AcDbPolyline
90
2
70
0
39
-1
10
1827.59999621
20
101.43
10
1827.59999621
20
103.6
0
LWPOLYLINE
5
FF
100
AcDbEntity
8
symbols
6
ByLayer
62
256
370
-1
100
AcDbPolyline
90
2
70
0
39
-1
10
1827.59999621
20
297.77
10
1827.59999621
20
295.6
0
LWPOLYLINE
5
100
100
AcDbEntity
8
symbols
6
ByLayer
62
256
370
-1
100
AcDbPolyline
90
2
70
0
39
-1
10
1738.59999621
20
297.77
10
1738.59999621
20
101.43
0
LWPOLYLINE
5
101
100
AcDbEntity
8
symbols
6
ByLayer
62
256
370
-1
100
AcDbPolyline
90
2
70
0
39
-1
10
1740.59999621
20
101.43
10
1740.59999621
20
103.6
0
LWPOLYLINE
5
102
100
AcDbEntity
8
symbols
6
ByLayer
62
256
370
-1
100
AcDbPolyline
90
2
70
0
39
-1
10
1740.59999621
20
297.77
10
1740.59999621
20
295.6
0
LWPOLYLINE
5
103
100
AcDbEntity
8
symbols
6
ByLayer
62
256
370
-1
100
AcDbPolyline
90
2
70
0
39
-1
10
1825.76999621
20
301.6
10
1742.42999621
20
301.6
0
LWPOLYLINE
5
104
100
AcDbEntity
8
symbols
6
ByLayer
62
256
370
-1
100
AcDbPolyline
90
2
70
0
39
-1
10
1825.76999621
20
299.6
10
1823.59999621
20
299.6
0
LWPOLYLINE
5
105
100
AcDbEntity
8
symbols
6
ByLayer
62
256
370
-1
100
AcDbPolyline
90
2
70
0
39
-1
10
1742.42999621
20
299.6
10
1744.59999621
20
299.6
0
LWPOLYLINE
5
106
100
AcDbEntity
8
symbols
6
ByLayer
62
256
370
-1
100
AcDbPolyline
90
2
70
0
39
-1
10
1742.42999621
20
97.6
10
1825.76999621
20
97.6
0
LWPOLYLINE
5
107
100
AcDbEntity
8
symbols
6
ByLayer
62
256
370
-1
100
AcDbPolyline
90
2
70
0
39
-1
10
1825.76999621
20
99.6
10
1823.59999621
20
99.6
0
LWPOLYLINE
5
108
100
AcDbEntity
8
symbols
6
ByLayer
62
256
370
-1
100
AcDbPolyline
90
2
70
0
39
-1
10
1742.42999621
20
99.6
10
1744.59999621
20
99.6
0
LWPOLYLINE
5
109
100
AcDbEntity
8
symbols
6
ByLayer
62
256
370
-1
100
AcDbPolyline
90
2
70
0
39
-1
10
1829.59999621
20
145.52
10
1827.59999621
20
145.52
0
LWPOLYLINE
5
10A
100
AcDbEntity
8
symbols
6
ByLayer
62
256
370
-1
100
AcDbPolyline
90
2
70
0
39
-1
10
1829.59999621
20
220.4
10
1827.59999621
20
220.4
0
LWPOLYLINE
5
10B
100
AcDbEntity
8
symbols
6
ByLayer
62
256
370
-1
100
AcDbPolyline
90
4
70
0
39
-1
10
1829.59999621
20
272.4
10
1831.59999621
20
272.4
10
1831.59999621
20
241.2
10
1829.59999621
20
241.2
0
LWPOLYLINE
5
10C
100
AcDbEntity
8
symbols
6
ByLayer
62
256
370
-1
100
AcDbPolyline
90
44
70
1
39
-1
10
1804.99999621
20
134.28
10
1804.93455465
20
135.09102597
10
1804.74509289
20
135.86038672
10
1804.4419053
20
136.57778787
10
1804.03528625
20
137.23293506
10
1803.53553011
20
137.81553391
10
1802.95293127
20
138.31529004
10
1802.29778408
20
138.72190909
10
1801.58038293
20
139.02509668
10
1800.81102218
20
139.21455844
10
1799.99999621
20
139.28
10
1752.04999621
20
143.44
10
1751.23897024
20
143.37455844
10
1750.46960949
20
143.18509668
10
1749.75220833
20
142.88190909
10
1749.09706115
20
142.47529004
10
1748.5144623
20
141.97553391
10
1748.01470617
20
141.39293506
10
1747.60808712
20
140.73778787
10
1747.30489953
20
140.02038672
10
1747.11543777
20
139.25102597
10
1747.04999621
20
138.44
10
1745.14999621
20
113.08
10
1745.21543777
20
112.26897403
10
1745.40489953
20
111.49961328
10
1745.70808712
20
110.78221213
10
1746.11470617
20
110.12706494
10
1746.6144623
20
109.54446609
10
1747.19706115
20
109.04470996
10
1747.85220833
20
108.63809091
10
1748.56960949
20
108.33490332
10
1749.33897024
20
108.14544156
10
1750.14999621
20
108.08
10
1798.09999621
20
103.92
10
1798.91102218
20
103.98544156
10
1799.68038293
20
104.17490332
10
1800.39778408
20
104.47809091
10
1801.05293127
20
104.88470996
10
1801.63553011
20
105.38446609
10
1802.13528625
20
105.96706494
10
1802.5419053
20
106.62221213
10
1802.84509289
20
107.33961328
10
1803.03455465
20
108.10897403
10
1803.09999621
20
108.92
0
LWPOLYLINE
5
10D
100
AcDbEntity
8
symbols
6
ByLayer
62
256
370
-1
100
AcDbPolyline
90
44
70
1
39
-1
10
381.06994621
20
170.6
10
381.00450465
20
171.41102597
10
380.81504289
20
172.18038672
10
380.5118553
20
172.89778787
10
380.10523625
20
173.55293506
10
379.60548011
20
174.13553391
10
379.02288127
20
174.63529004
10
378.36773408
20
175.04190909
10
377.65033293
20
175.34509668
10
376.88097218
20
175.53455844
10
376.06994621
20
175.6
10
361.06994621
20
175.6
10
351.33763455
20
174.81470129
10
342.10530557
20
172.54116016
10
333.49649173
20
168.90290906
10
325.63472549
20
164.02348048
10
318.64353934
20
158.02640687
10
312.64646573
20
151.03522072
10
307.76703714
20
143.17345448
10
304.12878605
20
134.56464064
10
301.85524491
20
125.33231165
10
301.06994621
20
115.6
10
301.06994621
20
100.6
10
301.13538777
20
99.78897403
10
301.32484953
20
99.01961328
10
301.62803712
20
98.30221213
10
302.03465617
20
97.64706494
10
302.5344123
20
97.06446609
10
303.11701115
20
96.56470996
10
303.77215833
20
96.15809091
10
304.48955949
20
95.85490332
10
305.25892024
20
95.66544156
10
306.06994621
20
95.6
10
376.06994621
20
95.6
10
376.88097218
20
95.66544156
10
377.65033293
20
95.85490332
10
378.36773408
20
96.15809091
10
379.02288127
20
96.56470996
10
379.60548011
20
97.06446609
10
380.10523625
20
97.64706494
10
380.5118553
20
98.30221213
10
380.81504289
20
99.01961328
10
381.00450465
20
99.78897403
10
381.06994621
20
100.6
0
LWPOLYLINE
5
10E
100
AcDbEntity
8
symbols
6
ByLayer
62
256
370
-1
100
AcDbPolyline
90
44
70
1
39
-1
10
377.06994621
20
170.6
10
377.0568579
20
170.76220519
10
377.01896554
20
170.91607734
10
376.95832802
20
171.05955757
10
376.87700421
20
171.19058701
10
376.77705299
20
171.30710678
10
376.66053322
20
171.40705801
10
376.52950378
20
171.48838182
10
376.38602355
20
171.54901934
10
376.2321514
20
171.58691169
10
376.06994621
20
171.6
10
361.06994621
20
171.6
10
351.98645533
20
170.86705454
10
343.36961495
20
168.74508282
10
335.33472202
20
165.34938179
10
327.99707354
20
160.79524845
10
321.47196646
20
155.19797975
10
315.87469776
20
148.67287267
10
311.32056441
20
141.33522418
10
307.92486339
20
133.30033126
10
305.80289167
20
124.68349088
10
305.06994621
20
115.6
10
305.06994621
20
100.6
10
305.08303452
20
100.43779481
10
305.12092687
20
100.28392266
10
305.18156439
20
100.14044243
10
305.2628882
20
100.00941299
10
305.36283943
20
99.89289322
10
305.47935919
20
99.79294199
10
305.61038863
20
99.71161818
10
305.75386886
20
99.65098066
10
305.90774101
20
99.61308831
10
306.06994621
20
99.6
10
376.06994621
20
99.6
10
376.2321514
20
99.61308831
10
376.38602355
20
99.65098066
10
376.52950378
20
99.71161818
10
376.66053322
20
99.79294199
10
376.77705299
20
99.89289322
10
376.87700421
20
100.00941299
10
376.95832802
20
100.14044243
10
377.01896554
20
100.28392266
10
377.0568579
20
100.43779481
10
377.06994621
20
100.6
0
CIRCLE
5
10F
100
AcDbEntity
8
symbols
6
ByLayer
62
256
370
-1
100
AcDbCircle
10
366.06995354
20
110.59999918
40
3
0
LWPOLYLINE
5
110
100
AcDbEntity
8
symbols
6
ByLayer
62
256
370
-1
100
AcDbPolyline
90
44
70
1
39
-1
10
673.06994621
20
170.6
10
673.00450465
20
171.41102597
10
672.81504289
20
172.18038672
10
672.5118553
20
172.89778787
10
672.10523625
20
173.55293506
10
671.60548011
20
174.13553391
10
671.02288127
20
174.63529004
10
670.36773408
20
175.04190909
10
669.65033293
20
175.34509668
10
668.88097218
20
175.53455844
10
668.06994621
20
175.6
10
653.06994621
20
175.6
10
643.33763455
20
174.81470129
10
634.10530557
20
172.54116016
10
625.49649173
20
168.90290906
10
617.63472549
20
164.02348048
10
610.64353934
20
158.02640687
10
604.64646573
20
151.03522072
10
599.76703714
20
143.17345448
10
596.12878605
20
134.56464064
10
593.85524491
20
125.33231165
10
593.06994621
20
115.6
10
593.06994621
20
100.6
10
593.13538777
20
99.78897403
10
593.32484953
20
99.01961328
10
593.62803712
20
98.30221213
10
594.03465617
20
97.64706494
10
594.5344123
20
97.06446609
10
595.11701115
20
96.56470996
10
595.77215833
20
96.15809091
10
596.48955949
20
95.85490332
10
597.25892024
20
95.66544156
10
598.06994621
20
95.6
10
668.06994621
20
95.6
10
668.88097218
20
95.66544156
10
669.65033293
20
95.85490332
10
670.36773408
20
96.15809091
10
671.02288127
20
96.56470996
10
671.60548011
20
97.06446609
10
672.10523625
20
97.64706494
10
672.5118553
20
98.30221213
10
672.81504289
20
99.01961328
10
673.00450465
20
99.78897403
10
673.06994621
20
100.6
0
LWPOLYLINE
5
111
100
AcDbEntity
8
symbols
6
ByLayer
62
256
370
-1
100
AcDbPolyline
90
44
70
1
39
-1
10
669.06994621
20
170.6
10
669.0568579
20
170.76220519
10
669.01896554
20
170.91607734
10
668.95832802
20
171.05955757
10
668.87700421
20
171.19058701
10
668.77705299
20
171.30710678
10
668.66053322
20
171.40705801
10
668.52950378
20
171.48838182
10
668.38602355
20
171.54901934
10
668.2321514
20
171.58691169
10
668.06994621
20
171.6
10
653.06994621
20
171.6
10
643.98645533
20
170.86705454
10
635.36961495
20
168.74508282
10
627.33472202
20
165.34938179
10
619.99707354
20
160.79524845
10
613.47196646
20
155.19797975
10
607.87469776
20
148.67287267
10
603.32056441
20
141.33522418
10
599.92486339
20
133.30033126
10
597.80289167
20
124.68349088
10
597.06994621
20
115.6
10
597.06994621
20
100.6
10
597.08303452
20
100.43779481
10
597.12092687
20
100.28392266
10
597.18156439
20
100.14044243
10
597.2628882
20
100.00941299
10
597.36283943
20
99.89289322
10
597.47935919
20
99.79294199
10
597.61038863
20
99.71161818
10
597.75386886
20
99.65098066
10
597.90774101
20
99.61308831
10
598.06994621
20
99.6
10
668.06994621
20
99.6
10
668.2321514
20
99.61308831
10
668.38602355
20
99.65098066
10
668.52950378
20
99.71161818
10
668.66053322
20
99.79294199
10
668.77705299
20
99.89289322
10
668.87700421
20
100.00941299
10
668.95832802
20
100.14044243
10
669.01896554
20
100.28392266
10
669.0568579
20
100.43779481
10
669.06994621
20
100.6
0
CIRCLE
5
112
100
AcDbEntity
8
symbols
6
ByLayer
62
256
370
-1
100
AcDbCircle
10
658.06995354
20
110.59999918
40
3
0
LWPOLYLINE
5
113
100
AcDbEntity
8
symbols
6
ByLayer
62
256
370
-1
100
AcDbPolyline
90
44
70
1
39
-1
10
760.06994621
20
95.6
10
760.88097218
20
95.66544156
10
761.65033293
20
95.85490332
10
762.36773408
20
96.15809091
10
763.02288127
20
96.56470996
10
763.60548011
20
97.06446609
10
764.10523625
20
97.64706494
10
764.5118553
20
98.30221213
10
764.81504289
20
99.01961328
10
765.00450465
20
99.78897403
10
765.06994621
20
100.6
10
765.06994621
20
115.6
10
764.2846475
20
125.33231165
10
762.01110637
20
134.56464064
10
758.37285527
20
143.17345448
10
753.49342668
20
151.03522072
10
747.49635308
20
158.02640687
10
740.50516692
20
164.02348048
10
732.64340069
20
168.90290906
10
724.03458684
20
172.54116016
10
714.80225786
20
174.81470129
10
705.06994621
20
175.6
10
690.06994621
20
175.6
10
689.25892024
20
175.53455844
10
688.48955949
20
175.34509668
10
687.77215833
20
175.04190909
10
687.11701115
20
174.63529004
10
686.5344123
20
174.13553391
10
686.03465617
20
173.55293506
10
685.62803712
20
172.89778787
10
685.32484953
20
172.18038672
10
685.13538777
20
171.41102597
10
685.06994621
20
170.6
10
685.06994621
20
100.6
10
685.13538777
20
99.78897403
10
685.32484953
20
99.01961328
10
685.62803712
20
98.30221213
10
686.03465617
20
97.64706494
10
686.5344123
20
97.06446609
10
687.11701115
20
96.56470996
10
687.77215833
20
96.15809091
10
688.48955949
20
95.85490332
10
689.25892024
20
95.66544156
10
690.06994621
20
95.6
0
LWPOLYLINE
5
114
100
AcDbEntity
8
symbols
6
ByLayer
62
256
370
-1
100
AcDbPolyline
90
44
70
1
39
-1
10
760.06994621
20
99.6
10
760.2321514
20
99.61308831
10
760.38602355
20
99.65098066
10
760.52950378
20
99.71161818
10
760.66053322
20
99.79294199
10
760.77705299
20
99.89289322
10
760.87700421
20
100.00941299
10
760.95832802
20
100.14044243
10
761.01896554
20
100.28392266
10
761.0568579
20
100.43779481
10
761.06994621
20
100.6
10
761.06994621
20
115.6
10
760.33700075
20
124.68349088
10
758.21502902
20
133.30033126
10
754.819328
20
141.33522418
10
750.26519465
20
148.67287267
10
744.66792595
20
155.19797975
10
738.14281887
20
160.79524845
10
730.80517039
20
165.34938179
10
722.77027747
20
168.74508282
10
714.15343708
20
170.86705454
10
705.06994621
20
171.6
10
690.06994621
20
171.6
10
689.90774101
20
171.58691169
10
689.75386886
20
171.54901934
10
689.61038863
20
171.48838182
10
689.47935919
20
171.40705801
10
689.36283943
20
171.30710678
10
689.2628882
20
171.19058701
10
689.18156439
20
171.05955757
10
689.12092687
20
170.91607734
10
689.08303452
20
170.76220519
10
689.06994621
20
170.6
10
689.06994621
20
100.6
10
689.08303452
20
100.43779481
10
689.12092687
20
100.28392266
10
689.18156439
20
100.14044243
10
689.2628882
20
100.00941299
10
689.36283943
20
99.89289322
10
689.47935919
20
99.79294199
10
689.61038863
20
99.71161818
10
689.75386886
20
99.65098066
10
689.90774101
20
99.61308831
10
690.06994621
20
99.6
0
CIRCLE
5
115
100
AcDbEntity
8
symbols
6
ByLayer
62
256
370
-1
100
AcDbCircle
10
700.06994591
20
110.59999918
40
3
0
LWPOLYLINE
5
116
100
AcDbEntity
8
symbols
6
ByLayer
62
256
370
-1
100
AcDbPolyline
90
44
70
1
39
-1
10
1048.18984621
20
95.6
10
1049.00087218
20
95.66544156
10
1049.77023293
20
95.85490332
10
1050.48763408
20
96.15809091
10
1051.14278127
20
96.56470996
10
1051.72538011
20
97.06446609
10
1052.22513625
20
97.64706494
10
1052.6317553
20
98.30221213
10
1052.93494289
20
99.01961328
10
1053.12440465
20
99.78897403
10
1053.18984621
20
100.6
10
1053.18984621
20
115.6
10
1052.4045475
20
125.33231165
10
1050.13100637
20
134.56464064
10
1046.49275527
20
143.17345448
10
1041.61332668
20
151.03522072
10
1035.61625308
20
158.02640687
10
1028.62506692
20
164.02348048
10
1020.76330069
20
168.90290906
10
1012.15448684
20
172.54116016
10
1002.92215786
20
174.81470129
10
993.18984621
20
175.6
10
978.18984621
20
175.6
10
977.37882024
20
175.53455844
10
976.60945949
20
175.34509668
10
975.89205833
20
175.04190909
10
975.23691115
20
174.63529004
10
974.6543123
20
174.13553391
10
974.15455617
20
173.55293506
10
973.74793712
20
172.89778787
10
973.44474953
20
172.18038672
10
973.25528777
20
171.41102597
10
973.18984621
20
170.6
10
973.18984621
20
100.6
10
973.25528777
20
99.78897403
10
973.44474953
20
99.01961328
10
973.74793712
20
98.30221213
10
974.15455617
20
97.64706494
10
974.6543123
20
97.06446609
10
975.23691115
20
96.56470996
10
975.89205833
20
96.15809091
10
976.60945949
20
95.85490332
10
977.37882024
20
95.66544156
10
978.18984621
20
95.6
0
LWPOLYLINE
5
117
100
AcDbEntity
8
symbols
6
ByLayer
62
256
370
-1
100
AcDbPolyline
90
44
70
1
39
-1
10
1048.18984621
20
99.6
10
1048.3520514
20
99.61308831
10
1048.50592355
20
99.65098066
10
1048.64940378
20
99.71161818
10
1048.78043322
20
99.79294199
10
1048.89695299
20
99.89289322
10
1048.99690421
20
100.00941299
10
1049.07822802
20
100.14044243
10
1049.13886554
20
100.28392266
10
1049.1767579
20
100.43779481
10
1049.18984621
20
100.6
10
1049.18984621
20
115.6
10
1048.45690075
20
124.68349088
10
1046.33492902
20
133.30033126
10
1042.939228
20
141.33522418
10
1038.38509465
20
148.67287267
10
1032.78782595
20
155.19797975
10
1026.26271887
20
160.79524845
10
1018.92507039
20
165.34938179
10
1010.89017747
20
168.74508282
10
1002.27333708
20
170.86705454
10
993.18984621
20
171.6
10
978.18984621
20
171.6
10
978.02764101
20
171.58691169
10
977.87376886
20
171.54901934
10
977.73028863
20
171.48838182
10
977.59925919
20
171.40705801
10
977.48273943
20
171.30710678
10
977.3827882
20
171.19058701
10
977.30146439
20
171.05955757
10
977.24082687
20
170.91607734
10
977.20293452
20
170.76220519
10
977.18984621
20
170.6
10
977.18984621
20
100.6
10
977.20293452
20
100.43779481
10
977.24082687
20
100.28392266
10
977.30146439
20
100.14044243
10
977.3827882
20
100.00941299
10
977.48273943
20
99.89289322
10
977.59925919
20
99.79294199
10
977.73028863
20
99.71161818
10
977.87376886
20
99.65098066
10
978.02764101
20
99.61308831
10
978.18984621
20
99.6
0
CIRCLE
5
118
100
AcDbEntity
8
symbols
6
ByLayer
62
256
370
-1
100
AcDbCircle
10
988.18984185
20
110.59999918
40
3
0
LWPOLYLINE
5
119
100
AcDbEntity
8
symbols
6
ByLayer
62
256
370
-1
100
AcDbPolyline
90
44
70
1
39
-1
10
1340.18984621
20
95.6
10
1341.00087218
20
95.66544156
10
1341.77023293
20
95.85490332
10
1342.48763408
20
96.15809091
10
1343.14278127
20
96.56470996
10
1343.72538011
20
97.06446609
10
1344.22513625
20
97.64706494
10
1344.6317553
20
98.30221213
10
1344.93494289
20
99.01961328
10
1345.12440465
20
99.78897403
10
1345.18984621
20
100.6
10
1345.18984621
20
115.6
10
1344.4045475
20
125.33231165
10
1342.13100637
20
134.56464064
10
1338.49275527
20
143.17345448
10
1333.61332668
20
151.03522072
10
1327.61625308
20
158.02640687
10
1320.62506692
20
164.02348048
10
1312.76330069
20
168.90290906
10
1304.15448684
20
172.54116016
10
1294.92215786
20
174.81470129
10
1285.18984621
20
175.6
10
1270.18984621
20
175.6
10
1269.37882024
20
175.53455844
10
1268.60945949
20
175.34509668
10
1267.89205833
20
175.04190909
10
1267.23691115
20
174.63529004
10
1266.6543123
20
174.13553391
10
1266.15455617
20
173.55293506
10
1265.74793712
20
172.89778787
10
1265.44474953
20
172.18038672
10
1265.25528777
20
171.41102597
10
1265.18984621
20
170.6
10
1265.18984621
20
100.6
10
1265.25528777
20
99.78897403
10
1265.44474953
20
99.01961328
10
1265.74793712
20
98.30221213
10
1266.15455617
20
97.64706494
10
1266.6543123
20
97.06446609
10
1267.23691115
20
96.56470996
10
1267.89205833
20
96.15809091
10
1268.60945949
20
95.85490332
10
1269.37882024
20
95.66544156
10
1270.18984621
20
95.6
0
LWPOLYLINE
5
11A
100
AcDbEntity
8
symbols
6
ByLayer
62
256
370
-1
100
AcDbPolyline
90
44
70
1
39
-1
10
1340.18984621
20
99.6
10
1340.3520514
20
99.61308831
10
1340.50592355
20
99.65098066
10
1340.64940378
20
99.71161818
10
1340.78043322
20
99.79294199
10
1340.89695299
20
99.89289322
10
1340.99690421
20
100.00941299
10
1341.07822802
20
100.14044243
10
1341.13886554
20
100.28392266
10
1341.1767579
20
100.43779481
10
1341.18984621
20
100.6
10
1341.18984621
20
115.6
10
1340.45690075
20
124.68349088
10
1338.33492902
20
133.30033126
10
1334.939228
20
141.33522418
10
1330.38509465
20
148.67287267
10
1324.78782595
20
155.19797975
10
1318.26271887
20
160.79524845
10
1310.92507039
20
165.34938179
10
1302.89017747
20
168.74508282
10
1294.27333708
20
170.86705454
10
1285.18984621
20
171.6
10
1270.18984621
20
171.6
10
1270.02764101
20
171.58691169
10
1269.87376886
20
171.54901934
10
1269.73028863
20
171.48838182
10
1269.59925919
20
171.40705801
10
1269.48273943
20
171.30710678
10
1269.3827882
20
171.19058701
10
1269.30146439
20
171.05955757
10
1269.24082687
20
170.91607734
10
1269.20293452
20
170.76220519
10
1269.18984621
20
170.6
10
1269.18984621
20
100.6
10
1269.20293452
20
100.43779481
10
1269.24082687
20
100.28392266
10
1269.30146439
20
100.14044243
10
1269.3827882
20
100.00941299
10
1269.48273943
20
99.89289322
10
1269.59925919
20
99.79294199
10
1269.73028863
20
99.71161818
10
1269.87376886
20
99.65098066
10
1270.02764101
20
99.61308831
10
1270.18984621
20
99.6
0
CIRCLE
5
11B
100
AcDbEntity
8
symbols
6
ByLayer
62
256
370
-1
100
AcDbCircle
10
1280.18985711
20
110.59999918
40
3
0
LWPOLYLINE
5
11C
100
AcDbEntity
8
symbols
6
ByLayer
62
256
370
-1
100
AcDbPolyline
90
44
70
1
39
-1
10
1632.18984621
20
95.6
10
1633.00087218
20
95.66544156
10
1633.77023293
20
95.85490332
10
1634.48763408
20
96.15809091
10
1635.14278127
20
96.56470996
10
1635.72538011
20
97.06446609
10
1636.22513625
20
97.64706494
10
1636.6317553
20
98.30221213
10
1636.93494289
20
99.01961328
10
1637.12440465
20
99.78897403
10
1637.18984621
20
100.6
10
1637.18984621
20
115.6
10
1636.4045475
20
125.33231165
10
1634.13100637
20
134.56464064
10
1630.49275527
20
143.17345448
10
1625.61332668
20
151.03522072
10
1619.61625308
20
158.02640687
10
1612.62506692
20
164.02348048
10
1604.76330069
20
168.90290906
10
1596.15448684
20
172.54116016
10
1586.92215786
20
174.81470129
10
1577.18984621
20
175.6
10
1562.18984621
20
175.6
10
1561.37882024
20
175.53455844
10
1560.60945949
20
175.34509668
10
1559.89205833
20
175.04190909
10
1559.23691115
20
174.63529004
10
1558.6543123
20
174.13553391
10
1558.15455617
20
173.55293506
10
1557.74793712
20
172.89778787
10
1557.44474953
20
172.18038672
10
1557.25528777
20
171.41102597
10
1557.18984621
20
170.6
10
1557.18984621
20
100.6
10
1557.25528777
20
99.78897403
10
1557.44474953
20
99.01961328
10
1557.74793712
20
98.30221213
10
1558.15455617
20
97.64706494
10
1558.6543123
20
97.06446609
10
1559.23691115
20
96.56470996
10
1559.89205833
20
96.15809091
10
1560.60945949
20
95.85490332
10
1561.37882024
20
95.66544156
10
1562.18984621
20
95.6
0
LWPOLYLINE
5
11D
100
AcDbEntity
8
symbols
6
ByLayer
62
256
370
-1
100
AcDbPolyline
90
44
70
1
39
-1
10
1632.18984621
20
99.6
10
1632.3520514
20
99.61308831
10
1632.50592355
20
99.65098066
10
1632.64940378
20
99.71161818
10
1632.78043322
20
99.79294199
10
1632.89695299
20
99.89289322
10
1632.99690421
20
100.00941299
10
1633.07822802
20
100.14044243
10
1633.13886554
20
100.28392266
10
1633.1767579
20
100.43779481
10
1633.18984621
20
100.6
10
1633.18984621
20
115.6
10
1632.45690075
20
124.68349088
10
1630.33492902
20
133.30033126
10
1626.939228
20
141.33522418
10
1622.38509465
20
148.67287267
10
1616.78782595
20
155.19797975
10
1610.26271887
20
160.79524845
10
1602.92507039
20
165.34938179
10
1594.89017747
20
168.74508282
10
1586.27333708
20
170.86705454
10
1577.18984621
20
171.6
10
1562.18984621
20
171.6
10
1562.02764101
20
171.58691169
10
1561.87376886
20
171.54901934
10
1561.73028863
20
171.48838182
10
1561.59925919
20
171.40705801
10
1561.48273943
20
171.30710678
10
1561.3827882
20
171.19058701
10
1561.30146439
20
171.05955757
10
1561.24082687
20
170.91607734
10
1561.20293452
20
170.76220519
10
1561.18984621
20
170.6
10
1561.18984621
20
100.6
10
1561.20293452
20
100.43779481
10
1561.24082687
20
100.28392266
10
1561.30146439
20
100.14044243
10
1561.3827882
20
100.00941299
10
1561.48273943
20
99.89289322
10
1561.59925919
20
99.79294199
10
1561.73028863
20
99.71161818
10
1561.87376886
20
99.65098066
10
1562.02764101
20
99.61308831
10
1562.18984621
20
99.6
0
CIRCLE
5
11E
100
AcDbEntity
8
symbols
6
ByLayer
62
256
370
-1
100
AcDbCircle
10
1572.18985711
20
110.59999918
40
3
0
LWPOLYLINE
5
11F
100
AcDbEntity
8
symbols
6
ByLayer
62
256
370
-1
100
AcDbPolyline
90
4
70
1
39
-1
10
1274.68984621
20
185.6
10
1274.68984621
20
265.6
10
1280.68984621
20
265.6
10
1280.68984621
20
185.6
0
LWPOLYLINE
5
120
100
AcDbEntity
8
symbols
6
ByLayer
62
256
370
-1
100
AcDbPolyline
90
4
70
0
39
-1
10
1274.68984621
20
195.6
10
1271.68984621
20
198.6
10
1271.68984621
20
252.6
10
1274.68984621
20
255.6
0
LWPOLYLINE
5
121
100
AcDbEntity
8
symbols
6
ByLayer
62
256
370
-1
100
AcDbPolyline
90
4
70
0
39
-1
10
1271.68984621
20
209.6
10
1265.18984621
20
209.6
10
1265.18984621
20
241.6
10
1271.68984621
20
241.6
0
LWPOLYLINE
5
122
100
AcDbEntity
8
symbols
6
ByLayer
62
256
370
-1
100
AcDbPolyline
90
4
70
0
39
-1
10
1280.68984621
20
209.6
10
1290.18984621
20
209.6
10
1290.18984621
20
241.6
10
1280.68984621
20
241.6
0
LWPOLYLINE
5
123
100
AcDbEntity
8
symbols
6
ByLayer
62
256
370
-1
100
AcDbPolyline
90
4
70
1
39
-1
10
982.68984621
20
185.6
10
982.68984621
20
265.6
10
988.68984621
20
265.6
10
988.68984621
20
185.6
0
LWPOLYLINE
5
124
100
AcDbEntity
8
symbols
6
ByLayer
62
256
370
-1
100
AcDbPolyline
90
4
70
0
39
-1
10
982.68984621
20
195.6
10
979.68984621
20
198.6
10
979.68984621
20
252.6
10
982.68984621
20
255.6
0
LWPOLYLINE
5
125
100
AcDbEntity
8
symbols
6
ByLayer
62
256
370
-1
100
AcDbPolyline
90
4
70
0
39
-1
10
979.68984621
20
209.6
10
973.18984621
20
209.6
10
973.18984621
20
241.6
10
979.68984621
20
241.6
0
LWPOLYLINE
5
126
100
AcDbEntity
8
symbols
6
ByLayer
62
256
370
-1
100
AcDbPolyline
90
4
70
0
39
-1
10
988.68984621
20
209.6
10
998.18984621
20
209.6
10
998.18984621
20
241.6
10
988.68984621
20
241.6
0
LWPOLYLINE
5
127
100
AcDbEntity
8
symbols
6
ByLayer
62
256
370
-1
100
AcDbPolyline
90
4
70
1
39
-1
10
694.56994621
20
185.6
10
694.56994621
20
265.6
10
700.56994621
20
265.6
10
700.56994621
20
185.6
0
LWPOLYLINE
5
128
100
AcDbEntity
8
symbols
6
ByLayer
62
256
370
-1
100
AcDbPolyline
90
4
70
0
39
-1
10
694.56994621
20
195.6
10
691.56994621
20
198.6
10
691.56994621
20
252.6
10
694.56994621
20
255.6
0
LWPOLYLINE
5
129
100
AcDbEntity
8
symbols
6
ByLayer
62
256
370
-1
100
AcDbPolyline
90
4
70
0
39
-1
10
691.56994621
20
209.6
10
685.06994621
20
209.6
10
685.06994621
20
241.6
10
691.56994621
20
241.6
0
LWPOLYLINE
5
12A
100
AcDbEntity
8
symbols
6
ByLayer
62
256
370
-1
100
AcDbPolyline
90
4
70
0
39
-1
10
700.56994621
20
209.6
10
710.06994621
20
209.6
10
710.06994621
20
241.6
10
700.56994621
20
241.6
0
LWPOLYLINE
5
12B
100
AcDbEntity
8
symbols
6
ByLayer
62
256
370
-1
100
AcDbPolyline
90
4
70
1
39
-1
10
440.14944621
20
462.1
10
520.14944621
20
462.1
10
520.14944621
20
456.1
10
440.14944621
20
456.1
0
LWPOLYLINE
5
12C
100
AcDbEntity
8
symbols
6
ByLayer
62
256
370
-1
100
AcDbPolyline
90
4
70
0
39
-1
10
450.14944621
20
462.1
10
453.14944621
20
465.1
10
507.14944621
20
465.1
10
510.14944621
20
462.1
0
LWPOLYLINE
5
12D
100
AcDbEntity
8
symbols
6
ByLayer
62
256
370
-1
100
AcDbPolyline
90
4
70
0
39
-1
10
464.14944621
20
465.1
10
464.14944621
20
471.6
10
496.14944621
20
471.6
10
496.14944621
20
465.1
0
LWPOLYLINE
5
12E
100
AcDbEntity
8
symbols
6
ByLayer
62
256
370
-1
100
AcDbPolyline
90
4
70
0
39
-1
10
464.14944621
20
456.1
10
464.14944621
20
446.6
10
496.14944621
20
446.6
10
496.14944621
20
456.1
0
LWPOLYLINE
5
12F
100
AcDbEntity
8
symbols
6
ByLayer
62
256
370
-1
100
AcDbPolyline
90
4
70
1
39
-1
10
142.01422621
20
462.1
10
222.01422621
20
462.1
10
222.01422621
20
456.1
10
142.01422621
20
456.1
0
LWPOLYLINE
5
130
100
AcDbEntity
8
symbols
6
ByLayer
62
256
370
-1
100
AcDbPolyline
90
4
70
0
39
-1
10
152.01422621
20
462.1
10
155.01422621
20
465.1
10
209.01422621
20
465.1
10
212.01422621
20
462.1
0
LWPOLYLINE
5
131
100
AcDbEntity
8
symbols
6
ByLayer
62
256
370
-1
100
AcDbPolyline
90
4
70
0
39
-1
10
166.01422621
20
465.1
10
166.01422621
20
471.6
10
198.01422621
20
471.6
10
198.01422621
20
465.1
0
LWPOLYLINE
5
132
100
AcDbEntity
8
symbols
6
ByLayer
62
256
370
-1
100
AcDbPolyline
90
4
70
0
39
-1
10
166.01422621
20
456.1
10
166.01422621
20
446.6
10
198.01422621
20
446.6
10
198.01422621
20
456.1
0
LWPOLYLINE
5
133
100
AcDbEntity
8
symbols
6
ByLayer
62
256
370
-1
100
AcDbPolyline
90
4
70
1
39
-1
10
1745.18984621
20
431.41181
10
1825.18984621
20
431.41181
10
1825.18984621
20
425.41181
10
1745.18984621
20
425.41181
0
LWPOLYLINE
5
134
100
AcDbEntity
8
symbols
6
ByLayer
62
256
370
-1
100
AcDbPolyline
90
4
70
0
39
-1
10
1755.18984621
20
431.41181
10
1758.18984621
20
434.41181
10
1812.18984621
20
434.41181
10
1815.18984621
20
431.41181
0
LWPOLYLINE
5
135
100
AcDbEntity
8
symbols
6
ByLayer
62
256
370
-1
100
AcDbPolyline
90
4
70
0
39
-1
10
1769.18984621
20
434.41181
10
1769.18984621
20
440.91181
10
1801.18984621
20
440.91181
10
1801.18984621
20
434.41181
0
LWPOLYLINE
5
136
100
AcDbEntity
8
symbols
6
ByLayer
62
256
370
-1
100
AcDbPolyline
90
4
70
0
39
-1
10
1769.18984621
20
425.41181
10
1769.18984621
20
415.91181
10
1801.18984621
20
415.91181
10
1801.18984621
20
425.41181
0
LWPOLYLINE
5
137
100
AcDbEntity
8
symbols
6
ByLayer
62
256
370
-1
100
AcDbPolyline
90
15
70
0
39
-1
10
370.55148621
20
482.6
10
365.55148621
20
482.6
10
365.55148621
20
402.6
10
354.19712261
20
403.51618182
10
343.42607213
20
406.16864648
10
333.38245598
20
410.41327276
10
324.21039537
20
416.10593944
10
316.05401152
20
423.10252532
10
309.05742565
20
431.25890917
10
303.36475897
20
440.43096977
10
299.12013269
20
450.47458592
10
296.46766803
20
461.24563641
10
295.55148621
20
472.6
10
295.55148621
20
482.6
10
290.55148621
20
482.6
0
LINE
5
138
100
AcDbEntity
8
symbols
6
ByLayer
62
256
370
-1
100
AcDbLine
10
370.55148621
20
472.6
11
290.55148621
21
472.6
0
LINE
5
139
100
AcDbEntity
8
symbols
6
ByLayer
62
256
370
-1
100
AcDbLine
10
360.55148621
20
472.6
11
360.55148621
21
402.7725
0
LWPOLYLINE
5
13A
100
AcDbEntity
8
symbols
6
ByLayer
62
256
370
-1
100
AcDbPolyline
90
15
70
0
39
-1
10
657.52870621
20
482.6
10
652.52870621
20
482.6
10
652.52870621
20
402.6
10
641.17434261
20
403.51618182
10
630.40329213
20
406.16864648
10
620.35967598
20
410.41327276
10
611.18761537
20
416.10593944
10
603.03123152
20
423.10252532
10
596.03464565
20
431.25890917
10
590.34197897
20
440.43096977
10
586.09735269
20
450.47458592
10
583.44488803
20
461.24563641
10
582.52870621
20
472.6
10
582.52870621
20
482.6
10
577.52870621
20
482.6
0
LINE
5
13B
100
AcDbEntity
8
symbols
6
ByLayer
62
256
370
-1
100
AcDbLine
10
657.52870621
20
472.6
11
577.52870621
21
472.6
0
LINE
5
13C
100
AcDbEntity
8
symbols
6
ByLayer
62
256
370
-1
100
AcDbLine
10
647.52870621
20
472.6
11
647.52870621
21
402.7725
0
LWPOLYLINE
5
13D
100
AcDbEntity
8
symbols
6
ByLayer
62
256
370
-1
100
AcDbPolyline
90
15
70
0
39
-1
10
692.92593621
20
362.6
10
697.92593621
20
362.6
10
697.92593621
20
282.6
10
709.2802998
20
283.51618182
10
720.05135028
20
286.16864648
10
730.09496643
20
290.41327276
10
739.26702704
20
296.10593944
10
747.42341089
20
303.10252532
10
754.41999676
20
311.25890917
10
760.11266345
20
320.43096977
10
764.35728973
20
330.47458592
10
767.00975438
20
341.24563641
10
767.92593621
20
352.6
10
767.92593621
20
362.6
10
772.92593621
20
362.6
0
LINE
5
13E
100
AcDbEntity
8
symbols
6
ByLayer
62
256
370
-1
100
AcDbLine
10
692.92593621
20
352.6
11
772.92593621
21
352.6
0
LINE
5
13F
100
AcDbEntity
8
symbols
6
ByLayer
62
256
370
-1
100
AcDbLine
10
702.92593621
20
352.6
11
702.92593621
21
282.7725
0
LWPOLYLINE
5
140
100
AcDbEntity
8
symbols
6
ByLayer
62
256
370
-1
100
AcDbPolyline
90
15
70
0
39
-1
10
987.85858621
20
362.6
10
992.85858621
20
362.6
10
992.85858621
20
282.6
10
1004.2129498
20
283.51618182
10
1014.98400028
20
286.16864648
10
1025.02761643
20
290.41327276
10
1034.19967704
20
296.10593944
10
1042.35606089
20
303.10252532
10
1049.35264676
20
311.25890917
10
1055.04531345
20
320.43096977
10
1059.28993973
20
330.47458592
10
1061.94240438
20
341.24563641
10
1062.85858621
20
352.6
10
1062.85858621
20
362.6
10
1067.85858621
20
362.6
0
LINE
5
141
100
AcDbEntity
8
symbols
6
ByLayer
62
256
370
-1
100
AcDbLine
10
987.85858621
20
352.6
11
1067.85858621
21
352.6
0
LINE
5
142
100
AcDbEntity
8
symbols
6
ByLayer
62
256
370
-1
100
AcDbLine
10
997.85858621
20
352.6
11
997.85858621
21
282.7725
0
LWPOLYLINE
5
143
100
AcDbEntity
8
symbols
6
ByLayer
62
256
370
-1
100
AcDbPolyline
90
15
70
0
39
-1
10
1279.39731621
20
362.6
10
1284.39731621
20
362.6
10
1284.39731621
20
282.6
10
1295.7516798
20
283.51618182
10
1306.52273028
20
286.16864648
10
1316.56634643
20
290.41327276
10
1325.73840704
20
296.10593944
10
1333.89479089
20
303.10252532
10
1340.89137676
20
311.25890917
10
1346.58404345
20
320.43096977
10
1350.82866973
20
330.47458592
10
1353.48113438
20
341.24563641
10
1354.39731621
20
352.6
10
1354.39731621
20
362.6
10
1359.39731621
20
362.6
0
LINE
5
144
100
AcDbEntity
8
symbols
6
ByLayer
62
256
370
-1
100
AcDbLine
10
1279.39731621
20
352.6
11
1359.39731621
21
352.6
0
LINE
5
145
100
AcDbEntity
8
symbols
6
ByLayer
62
256
370
-1
100
AcDbLine
10
1289.39731621
20
352.6
11
1289.39731621
21
282.7725
0
LWPOLYLINE
5
146
100
AcDbEntity
8
symbols
6
ByLayer
62
256
370
-1
100
AcDbPolyline
90
15
70
0
39
-1
10
1546.18984621
20
440.91171
10
1546.18984621
20
435.91171
10
1623.50145621
20
435.91171
10
1622.62046087
20
424.99341723
10
1620.06986563
20
414.6360351
10
1615.98825665
20
404.97814976
10
1610.51422009
20
396.15834738
10
1603.78634209
20
388.31521412
10
1595.94320882
20
381.58733612
10
1587.12340645
20
376.11329955
10
1577.46552111
20
372.03169057
10
1567.10813898
20
369.48109534
10
1556.18984621
20
368.6001
10
1546.18984621
20
368.6001
10
1546.18984621
20
363.6001
0
LINE
5
147
100
AcDbEntity
8
symbols
6
ByLayer
62
256
370
-1
100
AcDbLine
10
1556.18984621
20
440.91171
11
1556.18984621
21
363.6001
0
LINE
5
148
100
AcDbEntity
8
symbols
6
ByLayer
62
256
370
-1
100
AcDbLine
10
1556.18984621
20
430.91171
11
1623.3351395
21
430.91171
0
TEXT
5
149
100
AcDbEntity
8
text
6
ByLayer
62
256
370
-1
100
AcDbText
10
913.2
20
336.6
30
0
40
14
1
91.52 m2
50
-360
41
0.9
7
standard
72
1
11
963.6
21
336.6
31
0
100
AcDbText
0
ENDSEC
0
SECTION
2
OBJECTS
0
DICTIONARY
5
C
330
0
100
AcDbDictionary
281
1
3
ACAD_GROUP
350
D
0
DICTIONARY
5
D
330
C
100
AcDbDictionary
281
1
0
ENDSEC
0
EOF
