<?xml version="1.0" encoding="UTF-8" standalone="no"?>
<!DOCTYPE svg PUBLIC "-//W3C//DTD SVG 1.1//EN"
"http://www.w3.org/Graphics/SVG/1.1/DTD/svg11.dtd">
<svg xmlns="http://www.w3.org/2000/svg"
xmlns:xlink="http://www.w3.org/1999/xlink" xml:space="preserve"
width="963pt" height="343pt"
viewBox="0 0 963 343">
<g font-family="sans-serif" font-weight="bold">
<g transform="translate(0.54133,0) scale(0.49913) translate(813.20219,465.2876)" stroke="#ffffff" fill="none">
<path d="M1030.3978,138.3124 L1030.3978,-381.6876 -729.6022,-381.6876 -729.6022,138.3124 z" fill="#ffffff"/>
</g><g transform="translate(0.54133,0) scale(0.49913) translate(813.20219,465.2876)" stroke="#7b7569" stroke-width="1.80315" fill="none">
<path d="M-522.6507,-249.6866 L-717.1332,-249.6866 -717.1332,-261.6886 -522.6507,-261.6886 z M-427.1312,-249.6866 L-442.6507,-249.6866 -442.6507,-261.6886 -427.1312,-261.6886 z" fill="#7b7569"/>

<path d="M-420.1312,138.3134 L-432.1332,138.3134 -432.1332,-261.6886 -420.1312,-261.6886 z" fill="#7b7569"/>

<path d="M-235.6735,-249.6866 L-420.1332,-249.6866 -420.1332,-261.6886 -235.6735,-261.6886 z M-140.1312,-249.6866 L-155.6735,-249.6866 -155.6735,-261.6886 -140.1312,-261.6886 z" fill="#7b7569"/>

<path d="M-128.1312,138.3134 L-140.1332,138.3134 -140.1332,-261.6886 -128.1312,-261.6886 z" fill="#7b7569"/>

<path d="M159.9887,138.3134 L147.9867,138.3134 147.9867,-141.6886 159.9887,-141.6886 z" fill="#7b7569"/>

<path d="M-120.2762,-129.6866 L-132.0133,-129.6866 -132.0133,-141.6886 -120.2762,-141.6886 z M147.9887,-129.6866 L-40.2763,-129.6866 -40.2763,-141.6886 147.9887,-141.6886 z" fill="#7b7569"/>

<path d="M174.6564,-129.6866 L159.9867,-129.6866 159.9867,-141.6886 174.6564,-141.6886 z M439.9887,-129.6866 L254.6564,-129.6866 254.6564,-141.6886 439.9887,-141.6886 z" fill="#7b7569"/>

<path d="M466.1951,-129.6866 L451.9867,-129.6866 451.9867,-141.6886 466.1951,-141.6886 z M731.9887,-129.6866 L546.1951,-129.6866 546.1951,-141.6886 731.9887,-141.6886 z" fill="#7b7569"/>

<path d="M1016.9887,-218.9984 L726.9867,-218.9984 726.9867,-231.0004 1016.9887,-231.0004 z" fill="#7b7569"/>

<path d="M451.9887,138.3134 L439.9867,138.3134 439.9867,-141.6886 451.9887,-141.6886 z" fill="#7b7569"/>

<path d="M743.9887,138.3134 L731.9867,138.3134 731.9867,-141.6886 743.9887,-141.6886 z" fill="#7b7569"/>

<path d="M743.9887,-141.6866 L731.9867,-141.6866 731.9867,-141.6877 743.9887,-141.6877 z M743.9887,-218.9993 L731.9867,-218.9993 731.9867,-219.0004 743.9887,-219.0004 z" fill="#7b7569"/>

<path d="M1025.4141,138.3134 L-734.5879,138.3134 -734.5879,126.3114 1025.4141,126.3114 z" fill="#7b7569"/>

<path d="M1030.3988,-381.6866 L-729.6032,-381.6866 -729.6032,-393.6886 1030.3988,-393.6886 z" fill="#7b7569"/>

<path d="M-717.6012,138.3134 L-729.6032,138.3134 -729.6032,-381.6886 -717.6012,-381.6886 z" fill="#7b7569"/>

<path d="M1030.3988,126.3134 L1018.3968,126.3134 1018.3968,-393.6886 1030.3988,-393.6886 z" fill="#7b7569"/>

<path d="M726.9887,-218.9984 L111.8668,-217.074 111.8292,-229.0759 726.9511,-231.0004 z" fill="#7b7569"/>
</g><g transform="translate(0.54133,0) scale(0.49913) translate(813.20219,465.2876)" stroke="#111111" stroke-width="1.80315" fill="none">
<path d="M1030.3988,-381.6976 L1030.4078,-381.6976 1030.4078,138.3224 -729.6122,138.3224 -729.6122,138.3134 -734.5879,138.3134 -734.5879,126.3114 -729.6122,126.3114 -729.6122,-381.6976 -729.6032,-381.6976 -729.6032,-393.6886 1030.3988,-393.6886 z M1025.4141,126.3134 L1025.4141,138.3124 1030.3978,138.3124 1030.3978,126.3134 z M-235.6735,-249.6866 L-420.1312,-249.6866 -420.1312,126.3114 -140.1332,126.3114 -140.1332,-249.6866 -155.6735,-249.6866 -155.6735,-261.6886 -128.1312,-261.6886 -128.1312,-141.6886 -120.2762,-141.6886 -120.2762,-129.6866 -128.1312,-129.6866 -128.1312,126.3114 147.9867,126.3114 147.9867,-129.6866 -40.2763,-129.6866 -40.2763,-141.6886 174.6564,-141.6886 174.6564,-129.6866 159.9887,-129.6866 159.9887,126.3114 439.9867,126.3114 439.9867,-129.6866 254.6564,-129.6866 254.6564,-141.6886 466.1951,-141.6886 466.1951,-129.6866 451.9887,-129.6866 451.9887,126.3114 731.9867,126.3114 731.9867,-129.6866 546.1951,-129.6866 546.1951,-141.6886 743.9887,-141.6886 743.9887,126.3114 1018.3968,126.3114 1018.3968,-381.6866 -717.6012,-381.6866 -717.6012,126.3114 -432.1332,126.3114 -432.1332,-249.6866 -442.6507,-249.6866 -442.6507,-261.6886 -235.6735,-261.6886 z M1016.9887,-218.9984 L726.9887,-218.9984 111.8668,-217.074 111.8292,-229.0759 726.9511,-231.0004 726.9867,-219.6368 726.9867,-231.0004 1016.9887,-231.0004 z M-522.6507,-249.6866 L-717.1332,-249.6866 -717.1332,-261.6886 -522.6507,-261.6886 z"/>
</g><g transform="translate(0.54133,0) scale(0.49913) translate(813.20219,465.2876)" stroke="#c5a252" stroke-width="0.60105" opacity="1" fill="none">
<path d="M-432.13224,51.3124 C-432.13224,48.55098 -434.37082,46.3124 -437.13224,46.3124 L-452.13224,46.3124 C-485.26932,46.3124 -512.13224,73.17532 -512.13224,106.3124 L-512.13224,121.3124 C-512.13224,124.07382 -509.89366,126.3124 -507.13224,126.3124 L-437.13224,126.3124 C-434.37082,126.3124 -432.13224,124.07382 -432.13224,121.3124 z" fill="#c5a252"/>
</g><g transform="translate(0.54133,0) scale(0.49913) translate(813.20219,465.2876)" stroke="#000000" stroke-width="0.60105" opacity="1" fill="none">
<path d="M-432.13224,51.3124 C-432.13224,48.55098 -434.37082,46.3124 -437.13224,46.3124 L-452.13224,46.3124 C-485.26932,46.3124 -512.13224,73.17532 -512.13224,106.3124 L-512.13224,121.3124 C-512.13224,124.07382 -509.89366,126.3124 -507.13224,126.3124 L-437.13224,126.3124 C-434.37082,126.3124 -432.13224,124.07382 -432.13224,121.3124 z"/>

<path d="M-436.13224,51.3124 C-436.13224,50.76012 -436.57996,50.3124 -437.13224,50.3124 L-452.13224,50.3124 C-483.06019,50.3124 -508.13224,75.38445 -508.13224,106.3124 L-508.13224,121.3124 C-508.13224,121.86468 -507.68452,122.3124 -507.13224,122.3124 L-437.13224,122.3124 C-436.57996,122.3124 -436.13224,121.86468 -436.13224,121.3124 z"/>

<ellipse cx="-447.13223" cy="111.3124" rx="3" ry="3"/>
</g><g transform="translate(0.54133,0) scale(0.49913) translate(813.20219,465.2876)" stroke="#c5a252" stroke-width="0.60105" opacity="1" fill="none">
<path d="M-140.13224,51.3124 C-140.13224,48.55098 -142.37082,46.3124 -145.13224,46.3124 L-160.13224,46.3124 C-193.26932,46.3124 -220.13224,73.17532 -220.13224,106.3124 L-220.13224,121.3124 C-220.13224,124.07382 -217.89366,126.3124 -215.13224,126.3124 L-145.13224,126.3124 C-142.37082,126.3124 -140.13224,124.07382 -140.13224,121.3124 z" fill="#c5a252"/>
</g><g transform="translate(0.54133,0) scale(0.49913) translate(813.20219,465.2876)" stroke="#000000" stroke-width="0.60105" opacity="1" fill="none">
<path d="M-140.13224,51.3124 C-140.13224,48.55098 -142.37082,46.3124 -145.13224,46.3124 L-160.13224,46.3124 C-193.26932,46.3124 -220.13224,73.17532 -220.13224,106.3124 L-220.13224,121.3124 C-220.13224,124.07382 -217.89366,126.3124 -215.13224,126.3124 L-145.13224,126.3124 C-142.37082,126.3124 -140.13224,124.07382 -140.13224,121.3124 z"/>

<path d="M-144.13224,51.3124 C-144.13224,50.76012 -144.57996,50.3124 -145.13224,50.3124 L-160.13224,50.3124 C-191.06019,50.3124 -216.13224,75.38445 -216.13224,106.3124 L-216.13224,121.3124 C-216.13224,121.86468 -215.68452,122.3124 -215.13224,122.3124 L-145.13224,122.3124 C-144.57996,122.3124 -144.13224,121.86468 -144.13224,121.3124 z"/>

<ellipse cx="-155.13223" cy="111.3124" rx="3" ry="3"/>
</g><g transform="translate(0.54133,0) scale(0.49913) translate(813.20219,465.2876)" stroke="#c5a252" stroke-width="0.60105" opacity="1" fill="none">
<path d="M-53.13224,126.3124 C-50.37082,126.3124 -48.13224,124.07382 -48.13224,121.3124 L-48.13224,106.3124 C-48.13224,73.17532 -74.99516,46.3124 -108.13224,46.3124 L-123.13224,46.3124 C-125.89366,46.3124 -128.13224,48.55098 -128.13224,51.3124 L-128.13224,121.3124 C-128.13224,124.07382 -125.89366,126.3124 -123.13224,126.3124 z" fill="#c5a252"/>
</g><g transform="translate(0.54133,0) scale(0.49913) translate(813.20219,465.2876)" stroke="#000000" stroke-width="0.60105" opacity="1" fill="none">
<path d="M-53.13224,126.3124 C-50.37082,126.3124 -48.13224,124.07382 -48.13224,121.3124 L-48.13224,106.3124 C-48.13224,73.17532 -74.99516,46.3124 -108.13224,46.3124 L-123.13224,46.3124 C-125.89366,46.3124 -128.13224,48.55098 -128.13224,51.3124 L-128.13224,121.3124 C-128.13224,124.07382 -125.89366,126.3124 -123.13224,126.3124 z"/>

<path d="M-53.13224,122.3124 C-52.57996,122.3124 -52.13224,121.86468 -52.13224,121.3124 L-52.13224,106.3124 C-52.13224,75.38445 -77.20429,50.3124 -108.13224,50.3124 L-123.13224,50.3124 C-123.68452,50.3124 -124.13224,50.76012 -124.13224,51.3124 L-124.13224,121.3124 C-124.13224,121.86468 -123.68452,122.3124 -123.13224,122.3124 z"/>

<ellipse cx="-113.13224" cy="111.3124" rx="3" ry="3"/>
</g><g transform="translate(0.54133,0) scale(0.49913) translate(813.20219,465.2876)" stroke="#c5a252" stroke-width="0.60105" opacity="1" fill="none">
<path d="M234.98766,126.3124 C237.74908,126.3124 239.98766,124.07382 239.98766,121.3124 L239.98766,106.3124 C239.98766,73.17532 213.12474,46.3124 179.98766,46.3124 L164.98766,46.3124 C162.22624,46.3124 159.98766,48.55098 159.98766,51.3124 L159.98766,121.3124 C159.98766,124.07382 162.22624,126.3124 164.98766,126.3124 z" fill="#c5a252"/>
</g><g transform="translate(0.54133,0) scale(0.49913) translate(813.20219,465.2876)" stroke="#000000" stroke-width="0.60105" opacity="1" fill="none">
<path d="M234.98766,126.3124 C237.74908,126.3124 239.98766,124.07382 239.98766,121.3124 L239.98766,106.3124 C239.98766,73.17532 213.12474,46.3124 179.98766,46.3124 L164.98766,46.3124 C162.22624,46.3124 159.98766,48.55098 159.98766,51.3124 L159.98766,121.3124 C159.98766,124.07382 162.22624,126.3124 164.98766,126.3124 z"/>

<path d="M234.98766,122.3124 C235.53994,122.3124 235.98766,121.86468 235.98766,121.3124 L235.98766,106.3124 C235.98766,75.38445 210.91561,50.3124 179.98766,50.3124 L164.98766,50.3124 C164.43538,50.3124 163.98766,50.76012 163.98766,51.3124 L163.98766,121.3124 C163.98766,121.86468 164.43538,122.3124 164.98766,122.3124 z"/>

<ellipse cx="174.98766" cy="111.3124" rx="3" ry="3"/>
</g><g transform="translate(0.54133,0) scale(0.49913) translate(813.20219,465.2876)" stroke="#c5a252" stroke-width="0.60105" opacity="1" fill="none">
<path d="M526.98766,126.3124 C529.74908,126.3124 531.98766,124.07382 531.98766,121.3124 L531.98766,106.3124 C531.98766,73.17532 505.12474,46.3124 471.98766,46.3124 L456.98766,46.3124 C454.22624,46.3124 451.98766,48.55098 451.98766,51.3124 L451.98766,121.3124 C451.98766,124.07382 454.22624,126.3124 456.98766,126.3124 z" fill="#c5a252"/>
</g><g transform="translate(0.54133,0) scale(0.49913) translate(813.20219,465.2876)" stroke="#000000" stroke-width="0.60105" opacity="1" fill="none">
<path d="M526.98766,126.3124 C529.74908,126.3124 531.98766,124.07382 531.98766,121.3124 L531.98766,106.3124 C531.98766,73.17532 505.12474,46.3124 471.98766,46.3124 L456.98766,46.3124 C454.22624,46.3124 451.98766,48.55098 451.98766,51.3124 L451.98766,121.3124 C451.98766,124.07382 454.22624,126.3124 456.98766,126.3124 z"/>

<path d="M526.98766,122.3124 C527.53994,122.3124 527.98766,121.86468 527.98766,121.3124 L527.98766,106.3124 C527.98766,75.38445 502.91561,50.3124 471.98766,50.3124 L456.98766,50.3124 C456.43538,50.3124 455.98766,50.76012 455.98766,51.3124 L455.98766,121.3124 C455.98766,121.86468 456.43538,122.3124 456.98766,122.3124 z"/>

<ellipse cx="466.98767" cy="111.3124" rx="3" ry="3"/>
</g><g transform="translate(0.54133,0) scale(0.49913) translate(813.20219,465.2876)" stroke="#c5a252" stroke-width="0.60105" opacity="1" fill="none">
<path d="M818.98766,126.3124 C821.74908,126.3124 823.98766,124.07382 823.98766,121.3124 L823.98766,106.3124 C823.98766,73.17532 797.12474,46.3124 763.98766,46.3124 L748.98766,46.3124 C746.22624,46.3124 743.98766,48.55098 743.98766,51.3124 L743.98766,121.3124 C743.98766,124.07382 746.22624,126.3124 748.98766,126.3124 z" fill="#c5a252"/>
</g><g transform="translate(0.54133,0) scale(0.49913) translate(813.20219,465.2876)" stroke="#000000" stroke-width="0.60105" opacity="1" fill="none">
<path d="M818.98766,126.3124 C821.74908,126.3124 823.98766,124.07382 823.98766,121.3124 L823.98766,106.3124 C823.98766,73.17532 797.12474,46.3124 763.98766,46.3124 L748.98766,46.3124 C746.22624,46.3124 743.98766,48.55098 743.98766,51.3124 L743.98766,121.3124 C743.98766,124.07382 746.22624,126.3124 748.98766,126.3124 z"/>

<path d="M818.98766,122.3124 C819.53994,122.3124 819.98766,121.86468 819.98766,121.3124 L819.98766,106.3124 C819.98766,75.38445 794.91561,50.3124 763.98766,50.3124 L748.98766,50.3124 C748.43538,50.3124 747.98766,50.76012 747.98766,51.3124 L747.98766,121.3124 C747.98766,121.86468 748.43538,122.3124 748.98766,122.3124 z"/>

<ellipse cx="758.98767" cy="111.3124" rx="3" ry="3"/>
</g><g transform="translate(0.54133,0) scale(0.49913) translate(813.20219,465.2876)" stroke="#ffffff" stroke-width="0.60105" opacity="1" fill="none">
<path d="M451.98766,12.3124 L451.98766,-19.6876 476.98766,-19.6876 476.98766,12.3124 z" fill="#ffffff"/>
</g><g transform="translate(0.54133,0) scale(0.49913) translate(813.20219,465.2876)" stroke="#080000" stroke-width="0.60105" opacity="1" fill="none">
<path d="M461.48766,36.3124 L461.48766,-43.6876 467.48766,-43.6876 467.48766,36.3124 z" fill="#080000"/>

<path d="M461.48766,26.3124 L458.48766,23.3124 458.48766,-30.6876 461.48766,-33.6876" fill="#080000"/>
</g><g transform="translate(0.54133,0) scale(0.49913) translate(813.20219,465.2876)" stroke="#000000" stroke-width="0.60105" opacity="1" fill="none">
<path d="M461.48766,36.3124 L461.48766,-43.6876 467.48766,-43.6876 467.48766,36.3124 z"/>

<path d="M461.48766,26.3124 L458.48766,23.3124 458.48766,-30.6876 461.48766,-33.6876"/>

<path d="M458.48766,12.3124 L451.98766,12.3124 451.98766,-19.6876 458.48766,-19.6876"/>

<path d="M467.48766,12.3124 L476.98766,12.3124 476.98766,-19.6876 467.48766,-19.6876"/>
</g><g transform="translate(0.54133,0) scale(0.49913) translate(813.20219,465.2876)" stroke="#ffffff" stroke-width="0.60105" opacity="1" fill="none">
<path d="M159.98766,12.3124 L159.98766,-19.6876 184.98766,-19.6876 184.98766,12.3124 z" fill="#ffffff"/>
</g><g transform="translate(0.54133,0) scale(0.49913) translate(813.20219,465.2876)" stroke="#080000" stroke-width="0.60105" opacity="1" fill="none">
<path d="M169.48766,36.3124 L169.48766,-43.6876 175.48766,-43.6876 175.48766,36.3124 z" fill="#080000"/>

<path d="M169.48766,26.3124 L166.48766,23.3124 166.48766,-30.6876 169.48766,-33.6876" fill="#080000"/>
</g><g transform="translate(0.54133,0) scale(0.49913) translate(813.20219,465.2876)" stroke="#000000" stroke-width="0.60105" opacity="1" fill="none">
<path d="M169.48766,36.3124 L169.48766,-43.6876 175.48766,-43.6876 175.48766,36.3124 z"/>

<path d="M169.48766,26.3124 L166.48766,23.3124 166.48766,-30.6876 169.48766,-33.6876"/>

<path d="M166.48766,12.3124 L159.98766,12.3124 159.98766,-19.6876 166.48766,-19.6876"/>

<path d="M175.48766,12.3124 L184.98766,12.3124 184.98766,-19.6876 175.48766,-19.6876"/>
</g><g transform="translate(0.54133,0) scale(0.49913) translate(813.20219,465.2876)" stroke="#ffffff" stroke-width="0.60105" opacity="1" fill="none">
<path d="M-128.13224,12.3124 L-128.13224,-19.6876 -103.13224,-19.6876 -103.13224,12.3124 z" fill="#ffffff"/>
</g><g transform="translate(0.54133,0) scale(0.49913) translate(813.20219,465.2876)" stroke="#080000" stroke-width="0.60105" opacity="1" fill="none">
<path d="M-118.63224,36.3124 L-118.63224,-43.6876 -112.63224,-43.6876 -112.63224,36.3124 z" fill="#080000"/>

<path d="M-118.63224,26.3124 L-121.63224,23.3124 -121.63224,-30.6876 -118.63224,-33.6876" fill="#080000"/>
</g><g transform="translate(0.54133,0) scale(0.49913) translate(813.20219,465.2876)" stroke="#000000" stroke-width="0.60105" opacity="1" fill="none">
<path d="M-118.63224,36.3124 L-118.63224,-43.6876 -112.63224,-43.6876 -112.63224,36.3124 z"/>

<path d="M-118.63224,26.3124 L-121.63224,23.3124 -121.63224,-30.6876 -118.63224,-33.6876"/>

<path d="M-121.63224,12.3124 L-128.13224,12.3124 -128.13224,-19.6876 -121.63224,-19.6876"/>

<path d="M-112.63224,12.3124 L-103.13224,12.3124 -103.13224,-19.6876 -112.63224,-19.6876"/>
</g><g transform="translate(0.54133,0) scale(0.49913) translate(813.20219,465.2876)" stroke="#ffffff" stroke-width="0.60105" opacity="1" fill="none">
<path d="M-349.05274,-249.6876 L-317.05274,-249.6876 -317.05274,-224.6876 -349.05274,-224.6876 z" fill="#ffffff"/>
</g><g transform="translate(0.54133,0) scale(0.49913) translate(813.20219,465.2876)" stroke="#080000" stroke-width="0.60105" opacity="1" fill="none">
<path d="M-373.05274,-240.1876 L-293.05274,-240.1876 -293.05274,-234.1876 -373.05274,-234.1876 z" fill="#080000"/>

<path d="M-363.05274,-240.1876 L-360.05274,-243.1876 -306.05274,-243.1876 -303.05274,-240.1876" fill="#080000"/>
</g><g transform="translate(0.54133,0) scale(0.49913) translate(813.20219,465.2876)" stroke="#000000" stroke-width="0.60105" opacity="1" fill="none">
<path d="M-373.05274,-240.1876 L-293.05274,-240.1876 -293.05274,-234.1876 -373.05274,-234.1876 z"/>

<path d="M-363.05274,-240.1876 L-360.05274,-243.1876 -306.05274,-243.1876 -303.05274,-240.1876"/>

<path d="M-349.05274,-243.1876 L-349.05274,-249.6876 -317.05274,-249.6876 -317.05274,-243.1876"/>

<path d="M-349.05274,-234.1876 L-349.05274,-224.6876 -317.05274,-224.6876 -317.05274,-234.1876"/>
</g><g transform="translate(0.54133,0) scale(0.49913) translate(813.20219,465.2876)" stroke="#ffffff" stroke-width="0.60105" opacity="1" fill="none">
<path d="M-647.18796,-249.6876 L-615.18796,-249.6876 -615.18796,-224.6876 -647.18796,-224.6876 z" fill="#ffffff"/>
</g><g transform="translate(0.54133,0) scale(0.49913) translate(813.20219,465.2876)" stroke="#080000" stroke-width="0.60105" opacity="1" fill="none">
<path d="M-671.18796,-240.1876 L-591.18796,-240.1876 -591.18796,-234.1876 -671.18796,-234.1876 z" fill="#080000"/>

<path d="M-661.18796,-240.1876 L-658.18796,-243.1876 -604.18796,-243.1876 -601.18796,-240.1876" fill="#080000"/>
</g><g transform="translate(0.54133,0) scale(0.49913) translate(813.20219,465.2876)" stroke="#000000" stroke-width="0.60105" opacity="1" fill="none">
<path d="M-671.18796,-240.1876 L-591.18796,-240.1876 -591.18796,-234.1876 -671.18796,-234.1876 z"/>

<path d="M-661.18796,-240.1876 L-658.18796,-243.1876 -604.18796,-243.1876 -601.18796,-240.1876"/>

<path d="M-647.18796,-243.1876 L-647.18796,-249.6876 -615.18796,-249.6876 -615.18796,-243.1876"/>

<path d="M-647.18796,-234.1876 L-647.18796,-224.6876 -615.18796,-224.6876 -615.18796,-234.1876"/>
</g><g transform="translate(0.54133,0) scale(0.49913) translate(813.20219,465.2876)" stroke="#ffffff" stroke-width="0.60105" opacity="1" fill="none">
<path d="M955.98766,-218.99941 L987.98766,-218.99941 987.98766,-193.99941 955.98766,-193.99941 z" fill="#ffffff"/>
</g><g transform="translate(0.54133,0) scale(0.49913) translate(813.20219,465.2876)" stroke="#080000" stroke-width="0.60105" opacity="1" fill="none">
<path d="M931.98766,-209.49941 L1011.98766,-209.49941 1011.98766,-203.49941 931.98766,-203.49941 z" fill="#080000"/>

<path d="M941.98766,-209.49941 L944.98766,-212.49941 998.98766,-212.49941 1001.98766,-209.49941" fill="#080000"/>
</g><g transform="translate(0.54133,0) scale(0.49913) translate(813.20219,465.2876)" stroke="#000000" stroke-width="0.60105" opacity="1" fill="none">
<path d="M931.98766,-209.49941 L1011.98766,-209.49941 1011.98766,-203.49941 931.98766,-203.49941 z"/>

<path d="M941.98766,-209.49941 L944.98766,-212.49941 998.98766,-212.49941 1001.98766,-209.49941"/>

<path d="M955.98766,-212.49941 L955.98766,-218.99941 987.98766,-218.99941 987.98766,-212.49941"/>

<path d="M955.98766,-203.49941 L955.98766,-193.99941 987.98766,-193.99941 987.98766,-203.49941"/>
</g><g transform="translate(0.54133,0) scale(0.49913) translate(813.20219,465.2876)" stroke="#ffffff" stroke-width="0.60105" opacity="1" fill="none">
<ellipse cx="-625.60217" cy="123.3124" rx="3" ry="3" fill="#ffffff"/>

<ellipse cx="-714.60217" cy="123.3124" rx="3" ry="3" fill="#ffffff"/>

<ellipse cx="-714.60217" cy="-78.6876" rx="3" ry="3" fill="#ffffff"/>

<ellipse cx="-625.60217" cy="-78.6876" rx="3" ry="3" fill="#ffffff"/>
</g><g transform="translate(0.54133,0) scale(0.49913) translate(813.20219,465.2876)" stroke="#8274b4" stroke-width="0.60105" opacity="1" fill="none">
<path d="M-626.60219,-73.6876 C-626.60219,-75.89674 -628.39305,-77.6876 -630.60219,-77.6876 L-709.60219,-77.6876 C-711.81133,-77.6876 -713.60219,-75.89674 -713.60219,-73.6876 L-713.60219,118.3124 C-713.60219,120.52154 -711.81133,122.3124 -709.60219,122.3124 L-630.60219,122.3124 C-628.39305,122.3124 -626.60219,120.52154 -626.60219,118.3124 z" fill="#8274b4"/>
</g><g transform="translate(0.54133,0) scale(0.49913) translate(813.20219,465.2876)" stroke="#ffffff" stroke-width="0.60105" opacity="1" fill="none">
<path d="M-624.60219,-75.8576 L-626.60219,-75.8576 -626.60219,120.4824 -624.60219,120.4824 z" fill="#ffffff"/>

<path d="M-713.60219,-75.8576 L-715.60219,-75.8576 -715.60219,120.4824 -713.60219,120.4824 z" fill="#ffffff"/>

<path d="M-628.43219,-79.6876 L-711.77219,-79.6876 -711.77219,-77.6876 -628.43219,-77.6876 z" fill="#ffffff"/>

<path d="M-628.43219,122.3124 L-711.77219,122.3124 -711.77219,124.3124 -628.43219,124.3124 z" fill="#ffffff"/>
</g><g transform="translate(0.54133,0) scale(0.49913) translate(813.20219,465.2876)" stroke="#000000" stroke-width="0.60105" opacity="1" fill="none">
<path d="M-626.60219,-73.6876 C-626.60219,-75.89674 -628.39305,-77.6876 -630.60219,-77.6876 L-709.60219,-77.6876 C-711.81133,-77.6876 -713.60219,-75.89674 -713.60219,-73.6876 L-713.60219,118.3124 C-713.60219,120.52154 -711.81133,122.3124 -709.60219,122.3124 L-630.60219,122.3124 C-628.39305,122.3124 -626.60219,120.52154 -626.60219,118.3124 z"/>

<ellipse cx="-625.60217" cy="123.3124" rx="3" ry="3"/>

<ellipse cx="-714.60217" cy="123.3124" rx="3" ry="3"/>

<ellipse cx="-714.60217" cy="-78.6876" rx="3" ry="3"/>

<ellipse cx="-625.60217" cy="-78.6876" rx="3" ry="3"/>

<path d="M-624.60219,-75.8576 L-624.60219,120.4824"/>

<path d="M-626.60219,120.4824 L-626.60219,118.3124"/>

<path d="M-626.60219,-75.8576 L-626.60219,-73.6876"/>

<path d="M-715.60219,-75.8576 L-715.60219,120.4824"/>

<path d="M-713.60219,120.4824 L-713.60219,118.3124"/>

<path d="M-713.60219,-75.8576 L-713.60219,-73.6876"/>

<path d="M-628.43219,-79.6876 L-711.77219,-79.6876"/>

<path d="M-628.43219,-77.6876 L-630.60219,-77.6876"/>

<path d="M-711.77219,-77.6876 L-709.60219,-77.6876"/>

<path d="M-711.77219,124.3124 L-628.43219,124.3124"/>

<path d="M-628.43219,122.3124 L-630.60219,122.3124"/>

<path d="M-711.77219,122.3124 L-709.60219,122.3124"/>

<path d="M-624.60219,76.3924 L-626.60219,76.3924"/>

<path d="M-624.60219,1.5124 L-626.60219,1.5124"/>

<path d="M-624.60219,-50.4876 L-622.60219,-50.4876 -622.60219,-19.2876 -624.60219,-19.2876"/>
</g><g transform="translate(0.54133,0) scale(0.49913) translate(813.20219,465.2876)" stroke="#ffffff" stroke-width="0.60105" opacity="1" fill="none">
<path d="M-649.20219,87.6324 C-649.20219,84.87098 -651.44077,82.6324 -654.20219,82.6324 L-702.15219,78.4724 C-704.91361,78.4724 -707.15219,80.71098 -707.15219,83.4724 L-709.05219,108.8324 C-709.05219,111.59382 -706.81361,113.8324 -704.05219,113.8324 L-656.10219,117.9924 C-653.34077,117.9924 -651.10219,115.75382 -651.10219,112.9924 z" fill="#ffffff"/>
</g><g transform="translate(0.54133,0) scale(0.49913) translate(813.20219,465.2876)" stroke="#000000" stroke-width="0.60105" opacity="1" fill="none">
<path d="M-649.20219,87.6324 C-649.20219,84.87098 -651.44077,82.6324 -654.20219,82.6324 L-702.15219,78.4724 C-704.91361,78.4724 -707.15219,80.71098 -707.15219,83.4724 L-709.05219,108.8324 C-709.05219,111.59382 -706.81361,113.8324 -704.05219,113.8324 L-656.10219,117.9924 C-653.34077,117.9924 -651.10219,115.75382 -651.10219,112.9924 z"/>
</g><g transform="translate(0.54133,0) scale(0.49913) translate(813.20219,465.2876)" stroke="#ffffff" stroke-width="0.60105" opacity="1" fill="none">
<ellipse cx="-328.13223" cy="123.3124" rx="3" ry="3" fill="#ffffff"/>

<ellipse cx="-417.13223" cy="123.3124" rx="3" ry="3" fill="#ffffff"/>

<ellipse cx="-417.13223" cy="-78.6876" rx="3" ry="3" fill="#ffffff"/>

<ellipse cx="-328.13223" cy="-78.6876" rx="3" ry="3" fill="#ffffff"/>
</g><g transform="translate(0.54133,0) scale(0.49913) translate(813.20219,465.2876)" stroke="#8274b4" stroke-width="0.60105" opacity="1" fill="none">
<path d="M-329.13224,-73.6876 C-329.13224,-75.89674 -330.9231,-77.6876 -333.13224,-77.6876 L-412.13224,-77.6876 C-414.34138,-77.6876 -416.13224,-75.89674 -416.13224,-73.6876 L-416.13224,118.3124 C-416.13224,120.52154 -414.34138,122.3124 -412.13224,122.3124 L-333.13224,122.3124 C-330.9231,122.3124 -329.13224,120.52154 -329.13224,118.3124 z" fill="#8274b4"/>
</g><g transform="translate(0.54133,0) scale(0.49913) translate(813.20219,465.2876)" stroke="#ffffff" stroke-width="0.60105" opacity="1" fill="none">
<path d="M-327.13224,-75.8576 L-329.13224,-75.8576 -329.13224,120.4824 -327.13224,120.4824 z" fill="#ffffff"/>

<path d="M-416.13224,-75.8576 L-418.13224,-75.8576 -418.13224,120.4824 -416.13224,120.4824 z" fill="#ffffff"/>

<path d="M-330.96224,-79.6876 L-414.30224,-79.6876 -414.30224,-77.6876 -330.96224,-77.6876 z" fill="#ffffff"/>

<path d="M-330.96224,122.3124 L-414.30224,122.3124 -414.30224,124.3124 -330.96224,124.3124 z" fill="#ffffff"/>
</g><g transform="translate(0.54133,0) scale(0.49913) translate(813.20219,465.2876)" stroke="#000000" stroke-width="0.60105" opacity="1" fill="none">
<path d="M-329.13224,-73.6876 C-329.13224,-75.89674 -330.9231,-77.6876 -333.13224,-77.6876 L-412.13224,-77.6876 C-414.34138,-77.6876 -416.13224,-75.89674 -416.13224,-73.6876 L-416.13224,118.3124 C-416.13224,120.52154 -414.34138,122.3124 -412.13224,122.3124 L-333.13224,122.3124 C-330.9231,122.3124 -329.13224,120.52154 -329.13224,118.3124 z"/>

<ellipse cx="-328.13223" cy="123.3124" rx="3" ry="3"/>

<ellipse cx="-417.13223" cy="123.3124" rx="3" ry="3"/>

<ellipse cx="-417.13223" cy="-78.6876" rx="3" ry="3"/>

<ellipse cx="-328.13223" cy="-78.6876" rx="3" ry="3"/>

<path d="M-327.13224,-75.8576 L-327.13224,120.4824"/>

<path d="M-329.13224,120.4824 L-329.13224,118.3124"/>

<path d="M-329.13224,-75.8576 L-329.13224,-73.6876"/>

<path d="M-418.13224,-75.8576 L-418.13224,120.4824"/>

<path d="M-416.13224,120.4824 L-416.13224,118.3124"/>

<path d="M-416.13224,-75.8576 L-416.13224,-73.6876"/>

<path d="M-330.96224,-79.6876 L-414.30224,-79.6876"/>

<path d="M-330.96224,-77.6876 L-333.13224,-77.6876"/>

<path d="M-414.30224,-77.6876 L-412.13224,-77.6876"/>

<path d="M-414.30224,124.3124 L-330.96224,124.3124"/>

<path d="M-330.96224,122.3124 L-333.13224,122.3124"/>

<path d="M-414.30224,122.3124 L-412.13224,122.3124"/>

<path d="M-327.13224,76.3924 L-329.13224,76.3924"/>

<path d="M-327.13224,1.5124 L-329.13224,1.5124"/>

<path d="M-327.13224,-50.4876 L-325.13224,-50.4876 -325.13224,-19.2876 -327.13224,-19.2876"/>
</g><g transform="translate(0.54133,0) scale(0.49913) translate(813.20219,465.2876)" stroke="#ffffff" stroke-width="0.60105" opacity="1" fill="none">
<path d="M-351.73224,87.6324 C-351.73224,84.87098 -353.97082,82.6324 -356.73224,82.6324 L-404.68224,78.4724 C-407.44366,78.4724 -409.68224,80.71098 -409.68224,83.4724 L-411.58224,108.8324 C-411.58224,111.59382 -409.34366,113.8324 -406.58224,113.8324 L-358.63224,117.9924 C-355.87082,117.9924 -353.63224,115.75382 -353.63224,112.9924 z" fill="#ffffff"/>
</g><g transform="translate(0.54133,0) scale(0.49913) translate(813.20219,465.2876)" stroke="#000000" stroke-width="0.60105" opacity="1" fill="none">
<path d="M-351.73224,87.6324 C-351.73224,84.87098 -353.97082,82.6324 -356.73224,82.6324 L-404.68224,78.4724 C-407.44366,78.4724 -409.68224,80.71098 -409.68224,83.4724 L-411.58224,108.8324 C-411.58224,111.59382 -409.34366,113.8324 -406.58224,113.8324 L-358.63224,117.9924 C-355.87082,117.9924 -353.63224,115.75382 -353.63224,112.9924 z"/>
</g><g transform="translate(0.54133,0) scale(0.49913) translate(813.20219,465.2876)" stroke="#ffffff" stroke-width="0.60105" opacity="1" fill="none">
<ellipse cx="55.98766" cy="-78.6876" rx="3" ry="3" fill="#ffffff"/>

<ellipse cx="144.98766" cy="-78.6876" rx="3" ry="3" fill="#ffffff"/>

<ellipse cx="144.98766" cy="123.3124" rx="3" ry="3" fill="#ffffff"/>

<ellipse cx="55.98766" cy="123.3124" rx="3" ry="3" fill="#ffffff"/>
</g><g transform="translate(0.54133,0) scale(0.49913) translate(813.20219,465.2876)" stroke="#8274b4" stroke-width="0.60105" opacity="1" fill="none">
<path d="M56.98766,118.3124 C56.98766,120.52154 58.77852,122.3124 60.98766,122.3124 L139.98766,122.3124 C142.1968,122.3124 143.98766,120.52154 143.98766,118.3124 L143.98766,-73.6876 C143.98766,-75.89674 142.1968,-77.6876 139.98766,-77.6876 L60.98766,-77.6876 C58.77852,-77.6876 56.98766,-75.89674 56.98766,-73.6876 z" fill="#8274b4"/>
</g><g transform="translate(0.54133,0) scale(0.49913) translate(813.20219,465.2876)" stroke="#ffffff" stroke-width="0.60105" opacity="1" fill="none">
<path d="M54.98766,120.4824 L56.98766,120.4824 56.98766,-75.8576 54.98766,-75.8576 z" fill="#ffffff"/>

<path d="M143.98766,120.4824 L145.98766,120.4824 145.98766,-75.8576 143.98766,-75.8576 z" fill="#ffffff"/>

<path d="M58.81766,124.3124 L142.15766,124.3124 142.15766,122.3124 58.81766,122.3124 z" fill="#ffffff"/>

<path d="M58.81766,-77.6876 L142.15766,-77.6876 142.15766,-79.6876 58.81766,-79.6876 z" fill="#ffffff"/>
</g><g transform="translate(0.54133,0) scale(0.49913) translate(813.20219,465.2876)" stroke="#000000" stroke-width="0.60105" opacity="1" fill="none">
<path d="M56.98766,118.3124 C56.98766,120.52154 58.77852,122.3124 60.98766,122.3124 L139.98766,122.3124 C142.1968,122.3124 143.98766,120.52154 143.98766,118.3124 L143.98766,-73.6876 C143.98766,-75.89674 142.1968,-77.6876 139.98766,-77.6876 L60.98766,-77.6876 C58.77852,-77.6876 56.98766,-75.89674 56.98766,-73.6876 z"/>

<ellipse cx="55.98766" cy="-78.6876" rx="3" ry="3"/>

<ellipse cx="144.98766" cy="-78.6876" rx="3" ry="3"/>

<ellipse cx="144.98766" cy="123.3124" rx="3" ry="3"/>

<ellipse cx="55.98766" cy="123.3124" rx="3" ry="3"/>

<path d="M54.98766,120.4824 L54.98766,-75.8576"/>

<path d="M56.98766,-75.8576 L56.98766,-73.6876"/>

<path d="M56.98766,120.4824 L56.98766,118.3124"/>

<path d="M145.98766,120.4824 L145.98766,-75.8576"/>

<path d="M143.98766,-75.8576 L143.98766,-73.6876"/>

<path d="M143.98766,120.4824 L143.98766,118.3124"/>

<path d="M58.81766,124.3124 L142.15766,124.3124"/>

<path d="M58.81766,122.3124 L60.98766,122.3124"/>

<path d="M142.15766,122.3124 L139.98766,122.3124"/>

<path d="M142.15766,-79.6876 L58.81766,-79.6876"/>

<path d="M58.81766,-77.6876 L60.98766,-77.6876"/>

<path d="M142.15766,-77.6876 L139.98766,-77.6876"/>

<path d="M54.98766,-31.7676 L56.98766,-31.7676"/>

<path d="M54.98766,43.1124 L56.98766,43.1124"/>

<path d="M54.98766,95.1124 L52.98766,95.1124 52.98766,63.9124 54.98766,63.9124"/>
</g><g transform="translate(0.54133,0) scale(0.49913) translate(813.20219,465.2876)" stroke="#ffffff" stroke-width="0.60105" opacity="1" fill="none">
<path d="M79.58766,-43.0076 C79.58766,-40.24618 81.82624,-38.0076 84.58766,-38.0076 L132.53766,-33.8476 C135.29908,-33.8476 137.53766,-36.08618 137.53766,-38.8476 L139.43766,-64.2076 C139.43766,-66.96902 137.19908,-69.2076 134.43766,-69.2076 L86.48766,-73.3676 C83.72624,-73.3676 81.48766,-71.12902 81.48766,-68.3676 z" fill="#ffffff"/>
</g><g transform="translate(0.54133,0) scale(0.49913) translate(813.20219,465.2876)" stroke="#000000" stroke-width="0.60105" opacity="1" fill="none">
<path d="M79.58766,-43.0076 C79.58766,-40.24618 81.82624,-38.0076 84.58766,-38.0076 L132.53766,-33.8476 C135.29908,-33.8476 137.53766,-36.08618 137.53766,-38.8476 L139.43766,-64.2076 C139.43766,-66.96902 137.19908,-69.2076 134.43766,-69.2076 L86.48766,-73.3676 C83.72624,-73.3676 81.48766,-71.12902 81.48766,-68.3676 z"/>
</g><g transform="translate(0.54133,0) scale(0.49913) translate(813.20219,465.2876)" stroke="#ffffff" stroke-width="0.60105" opacity="1" fill="none">
<ellipse cx="347.98767" cy="-78.6876" rx="3" ry="3" fill="#ffffff"/>

<ellipse cx="436.98767" cy="-78.6876" rx="3" ry="3" fill="#ffffff"/>

<ellipse cx="436.98767" cy="123.3124" rx="3" ry="3" fill="#ffffff"/>

<ellipse cx="347.98767" cy="123.3124" rx="3" ry="3" fill="#ffffff"/>
</g><g transform="translate(0.54133,0) scale(0.49913) translate(813.20219,465.2876)" stroke="#8274b4" stroke-width="0.60105" opacity="1" fill="none">
<path d="M348.98766,118.3124 C348.98766,120.52154 350.77852,122.3124 352.98766,122.3124 L431.98766,122.3124 C434.1968,122.3124 435.98766,120.52154 435.98766,118.3124 L435.98766,-73.6876 C435.98766,-75.89674 434.1968,-77.6876 431.98766,-77.6876 L352.98766,-77.6876 C350.77852,-77.6876 348.98766,-75.89674 348.98766,-73.6876 z" fill="#8274b4"/>
</g><g transform="translate(0.54133,0) scale(0.49913) translate(813.20219,465.2876)" stroke="#ffffff" stroke-width="0.60105" opacity="1" fill="none">
<path d="M346.98766,120.4824 L348.98766,120.4824 348.98766,-75.8576 346.98766,-75.8576 z" fill="#ffffff"/>

<path d="M435.98766,120.4824 L437.98766,120.4824 437.98766,-75.8576 435.98766,-75.8576 z" fill="#ffffff"/>

<path d="M350.81766,124.3124 L434.15766,124.3124 434.15766,122.3124 350.81766,122.3124 z" fill="#ffffff"/>

<path d="M350.81766,-77.6876 L434.15766,-77.6876 434.15766,-79.6876 350.81766,-79.6876 z" fill="#ffffff"/>
</g><g transform="translate(0.54133,0) scale(0.49913) translate(813.20219,465.2876)" stroke="#000000" stroke-width="0.60105" opacity="1" fill="none">
<path d="M348.98766,118.3124 C348.98766,120.52154 350.77852,122.3124 352.98766,122.3124 L431.98766,122.3124 C434.1968,122.3124 435.98766,120.52154 435.98766,118.3124 L435.98766,-73.6876 C435.98766,-75.89674 434.1968,-77.6876 431.98766,-77.6876 L352.98766,-77.6876 C350.77852,-77.6876 348.98766,-75.89674 348.98766,-73.6876 z"/>

<ellipse cx="347.98767" cy="-78.6876" rx="3" ry="3"/>

<ellipse cx="436.98767" cy="-78.6876" rx="3" ry="3"/>

<ellipse cx="436.98767" cy="123.3124" rx="3" ry="3"/>

<ellipse cx="347.98767" cy="123.3124" rx="3" ry="3"/>

<path d="M346.98766,120.4824 L346.98766,-75.8576"/>

<path d="M348.98766,-75.8576 L348.98766,-73.6876"/>

<path d="M348.98766,120.4824 L348.98766,118.3124"/>

<path d="M437.98766,120.4824 L437.98766,-75.8576"/>

<path d="M435.98766,-75.8576 L435.98766,-73.6876"/>

<path d="M435.98766,120.4824 L435.98766,118.3124"/>

<path d="M350.81766,124.3124 L434.15766,124.3124"/>

<path d="M350.81766,122.3124 L352.98766,122.3124"/>

<path d="M434.15766,122.3124 L431.98766,122.3124"/>

<path d="M434.15766,-79.6876 L350.81766,-79.6876"/>

<path d="M350.81766,-77.6876 L352.98766,-77.6876"/>

<path d="M434.15766,-77.6876 L431.98766,-77.6876"/>

<path d="M346.98766,-31.7676 L348.98766,-31.7676"/>

<path d="M346.98766,43.1124 L348.98766,43.1124"/>

<path d="M346.98766,95.1124 L344.98766,95.1124 344.98766,63.9124 346.98766,63.9124"/>
</g><g transform="translate(0.54133,0) scale(0.49913) translate(813.20219,465.2876)" stroke="#ffffff" stroke-width="0.60105" opacity="1" fill="none">
<path d="M371.58766,-43.0076 C371.58766,-40.24618 373.82624,-38.0076 376.58766,-38.0076 L424.53766,-33.8476 C427.29908,-33.8476 429.53766,-36.08618 429.53766,-38.8476 L431.43766,-64.2076 C431.43766,-66.96902 429.19908,-69.2076 426.43766,-69.2076 L378.48766,-73.3676 C375.72624,-73.3676 373.48766,-71.12902 373.48766,-68.3676 z" fill="#ffffff"/>
</g><g transform="translate(0.54133,0) scale(0.49913) translate(813.20219,465.2876)" stroke="#000000" stroke-width="0.60105" opacity="1" fill="none">
<path d="M371.58766,-43.0076 C371.58766,-40.24618 373.82624,-38.0076 376.58766,-38.0076 L424.53766,-33.8476 C427.29908,-33.8476 429.53766,-36.08618 429.53766,-38.8476 L431.43766,-64.2076 C431.43766,-66.96902 429.19908,-69.2076 426.43766,-69.2076 L378.48766,-73.3676 C375.72624,-73.3676 373.48766,-71.12902 373.48766,-68.3676 z"/>
</g><g transform="translate(0.54133,0) scale(0.49913) translate(813.20219,465.2876)" stroke="#ffffff" stroke-width="0.60105" opacity="1" fill="none">
<ellipse cx="639.98767" cy="-126.6876" rx="3" ry="3" fill="#ffffff"/>

<ellipse cx="728.98767" cy="-126.6876" rx="3" ry="3" fill="#ffffff"/>

<ellipse cx="728.98767" cy="75.3124" rx="3" ry="3" fill="#ffffff"/>

<ellipse cx="639.98767" cy="75.3124" rx="3" ry="3" fill="#ffffff"/>
</g><g transform="translate(0.54133,0) scale(0.49913) translate(813.20219,465.2876)" stroke="#8274b4" stroke-width="0.60105" opacity="1" fill="none">
<path d="M640.98766,70.3124 C640.98766,72.52154 642.77852,74.3124 644.98766,74.3124 L723.98766,74.3124 C726.1968,74.3124 727.98766,72.52154 727.98766,70.3124 L727.98766,-121.6876 C727.98766,-123.89674 726.1968,-125.6876 723.98766,-125.6876 L644.98766,-125.6876 C642.77852,-125.6876 640.98766,-123.89674 640.98766,-121.6876 z" fill="#8274b4"/>
</g><g transform="translate(0.54133,0) scale(0.49913) translate(813.20219,465.2876)" stroke="#ffffff" stroke-width="0.60105" opacity="1" fill="none">
<path d="M638.98766,72.4824 L640.98766,72.4824 640.98766,-123.8576 638.98766,-123.8576 z" fill="#ffffff"/>

<path d="M727.98766,72.4824 L729.98766,72.4824 729.98766,-123.8576 727.98766,-123.8576 z" fill="#ffffff"/>

<path d="M642.81766,76.3124 L726.15766,76.3124 726.15766,74.3124 642.81766,74.3124 z" fill="#ffffff"/>

<path d="M642.81766,-125.6876 L726.15766,-125.6876 726.15766,-127.6876 642.81766,-127.6876 z" fill="#ffffff"/>
</g><g transform="translate(0.54133,0) scale(0.49913) translate(813.20219,465.2876)" stroke="#000000" stroke-width="0.60105" opacity="1" fill="none">
<path d="M640.98766,70.3124 C640.98766,72.52154 642.77852,74.3124 644.98766,74.3124 L723.98766,74.3124 C726.1968,74.3124 727.98766,72.52154 727.98766,70.3124 L727.98766,-121.6876 C727.98766,-123.89674 726.1968,-125.6876 723.98766,-125.6876 L644.98766,-125.6876 C642.77852,-125.6876 640.98766,-123.89674 640.98766,-121.6876 z"/>

<ellipse cx="639.98767" cy="-126.6876" rx="3" ry="3"/>

<ellipse cx="728.98767" cy="-126.6876" rx="3" ry="3"/>

<ellipse cx="728.98767" cy="75.3124" rx="3" ry="3"/>

<ellipse cx="639.98767" cy="75.3124" rx="3" ry="3"/>

<path d="M638.98766,72.4824 L638.98766,-123.8576"/>

<path d="M640.98766,-123.8576 L640.98766,-121.6876"/>

<path d="M640.98766,72.4824 L640.98766,70.3124"/>

<path d="M729.98766,72.4824 L729.98766,-123.8576"/>

<path d="M727.98766,-123.8576 L727.98766,-121.6876"/>

<path d="M727.98766,72.4824 L727.98766,70.3124"/>

<path d="M642.81766,76.3124 L726.15766,76.3124"/>

<path d="M642.81766,74.3124 L644.98766,74.3124"/>

<path d="M726.15766,74.3124 L723.98766,74.3124"/>

<path d="M726.15766,-127.6876 L642.81766,-127.6876"/>

<path d="M642.81766,-125.6876 L644.98766,-125.6876"/>

<path d="M726.15766,-125.6876 L723.98766,-125.6876"/>

<path d="M638.98766,-79.7676 L640.98766,-79.7676"/>

<path d="M638.98766,-4.8876 L640.98766,-4.8876"/>

<path d="M638.98766,47.1124 L636.98766,47.1124 636.98766,15.9124 638.98766,15.9124"/>
</g><g transform="translate(0.54133,0) scale(0.49913) translate(813.20219,465.2876)" stroke="#ffffff" stroke-width="0.60105" opacity="1" fill="none">
<path d="M663.58766,-91.0076 C663.58766,-88.24618 665.82624,-86.0076 668.58766,-86.0076 L716.53766,-81.8476 C719.29908,-81.8476 721.53766,-84.08618 721.53766,-86.8476 L723.43766,-112.2076 C723.43766,-114.96902 721.19908,-117.2076 718.43766,-117.2076 L670.48766,-121.3676 C667.72624,-121.3676 665.48766,-119.12902 665.48766,-116.3676 z" fill="#ffffff"/>
</g><g transform="translate(0.54133,0) scale(0.49913) translate(813.20219,465.2876)" stroke="#000000" stroke-width="0.60105" opacity="1" fill="none">
<path d="M663.58766,-91.0076 C663.58766,-88.24618 665.82624,-86.0076 668.58766,-86.0076 L716.53766,-81.8476 C719.29908,-81.8476 721.53766,-84.08618 721.53766,-86.8476 L723.43766,-112.2076 C723.43766,-114.96902 721.19908,-117.2076 718.43766,-117.2076 L670.48766,-121.3676 C667.72624,-121.3676 665.48766,-119.12902 665.48766,-116.3676 z"/>
</g><g transform="translate(0.54133,0) scale(0.49913) translate(813.20219,465.2876)" stroke="#ffffff" stroke-width="0.60105" opacity="1" fill="none">
<ellipse cx="1015.39783" cy="123.3124" rx="3" ry="3" fill="#ffffff"/>

<ellipse cx="926.39783" cy="123.3124" rx="3" ry="3" fill="#ffffff"/>

<ellipse cx="926.39783" cy="-78.6876" rx="3" ry="3" fill="#ffffff"/>

<ellipse cx="1015.39783" cy="-78.6876" rx="3" ry="3" fill="#ffffff"/>
</g><g transform="translate(0.54133,0) scale(0.49913) translate(813.20219,465.2876)" stroke="#8274b4" stroke-width="0.60105" opacity="1" fill="none">
<path d="M1014.39781,-73.6876 C1014.39781,-75.89674 1012.60695,-77.6876 1010.39781,-77.6876 L931.39781,-77.6876 C929.18867,-77.6876 927.39781,-75.89674 927.39781,-73.6876 L927.39781,118.3124 C927.39781,120.52154 929.18867,122.3124 931.39781,122.3124 L1010.39781,122.3124 C1012.60695,122.3124 1014.39781,120.52154 1014.39781,118.3124 z" fill="#8274b4"/>
</g><g transform="translate(0.54133,0) scale(0.49913) translate(813.20219,465.2876)" stroke="#ffffff" stroke-width="0.60105" opacity="1" fill="none">
<path d="M1016.39781,-75.8576 L1014.39781,-75.8576 1014.39781,120.4824 1016.39781,120.4824 z" fill="#ffffff"/>

<path d="M927.39781,-75.8576 L925.39781,-75.8576 925.39781,120.4824 927.39781,120.4824 z" fill="#ffffff"/>

<path d="M1012.56781,-79.6876 L929.22781,-79.6876 929.22781,-77.6876 1012.56781,-77.6876 z" fill="#ffffff"/>

<path d="M1012.56781,122.3124 L929.22781,122.3124 929.22781,124.3124 1012.56781,124.3124 z" fill="#ffffff"/>
</g><g transform="translate(0.54133,0) scale(0.49913) translate(813.20219,465.2876)" stroke="#000000" stroke-width="0.60105" opacity="1" fill="none">
<path d="M1014.39781,-73.6876 C1014.39781,-75.89674 1012.60695,-77.6876 1010.39781,-77.6876 L931.39781,-77.6876 C929.18867,-77.6876 927.39781,-75.89674 927.39781,-73.6876 L927.39781,118.3124 C927.39781,120.52154 929.18867,122.3124 931.39781,122.3124 L1010.39781,122.3124 C1012.60695,122.3124 1014.39781,120.52154 1014.39781,118.3124 z"/>

<ellipse cx="1015.39783" cy="123.3124" rx="3" ry="3"/>

<ellipse cx="926.39783" cy="123.3124" rx="3" ry="3"/>

<ellipse cx="926.39783" cy="-78.6876" rx="3" ry="3"/>

<ellipse cx="1015.39783" cy="-78.6876" rx="3" ry="3"/>

<path d="M1016.39781,-75.8576 L1016.39781,120.4824"/>

<path d="M1014.39781,120.4824 L1014.39781,118.3124"/>

<path d="M1014.39781,-75.8576 L1014.39781,-73.6876"/>

<path d="M925.39781,-75.8576 L925.39781,120.4824"/>

<path d="M927.39781,120.4824 L927.39781,118.3124"/>

<path d="M927.39781,-75.8576 L927.39781,-73.6876"/>

<path d="M1012.56781,-79.6876 L929.22781,-79.6876"/>

<path d="M1012.56781,-77.6876 L1010.39781,-77.6876"/>

<path d="M929.22781,-77.6876 L931.39781,-77.6876"/>

<path d="M929.22781,124.3124 L1012.56781,124.3124"/>

<path d="M1012.56781,122.3124 L1010.39781,122.3124"/>

<path d="M929.22781,122.3124 L931.39781,122.3124"/>

<path d="M1016.39781,76.3924 L1014.39781,76.3924"/>

<path d="M1016.39781,1.5124 L1014.39781,1.5124"/>

<path d="M1016.39781,-50.4876 L1018.39781,-50.4876 1018.39781,-19.2876 1016.39781,-19.2876"/>
</g><g transform="translate(0.54133,0) scale(0.49913) translate(813.20219,465.2876)" stroke="#ffffff" stroke-width="0.60105" opacity="1" fill="none">
<path d="M991.79781,87.6324 C991.79781,84.87098 989.55923,82.6324 986.79781,82.6324 L938.84781,78.4724 C936.08639,78.4724 933.84781,80.71098 933.84781,83.4724 L931.94781,108.8324 C931.94781,111.59382 934.18639,113.8324 936.94781,113.8324 L984.89781,117.9924 C987.65923,117.9924 989.89781,115.75382 989.89781,112.9924 z" fill="#ffffff"/>
</g><g transform="translate(0.54133,0) scale(0.49913) translate(813.20219,465.2876)" stroke="#000000" stroke-width="0.60105" opacity="1" fill="none">
<path d="M991.79781,87.6324 C991.79781,84.87098 989.55923,82.6324 986.79781,82.6324 L938.84781,78.4724 C936.08639,78.4724 933.84781,80.71098 933.84781,83.4724 L931.94781,108.8324 C931.94781,111.59382 934.18639,113.8324 936.94781,113.8324 L984.89781,117.9924 C987.65923,117.9924 989.89781,115.75382 989.89781,112.9924 z"/>

<path d="M-442.6507,-260.6876 L-447.6507,-260.6876 -447.6507,-180.6876 C-486.31063,-180.6876 -517.6507,-212.02767 -517.6507,-250.6876 L-517.6507,-260.6876 -522.6507,-260.6876"/>

<line x1="-442.6507" y1="-250.6876" x2="-522.6507" y2="-250.6876"/>

<line x1="-452.6507" y1="-250.6876" x2="-452.6507" y2="-180.8601"/>

<path d="M-155.67348,-260.6876 L-160.67348,-260.6876 -160.67348,-180.6876 C-199.33341,-180.6876 -230.67348,-212.02767 -230.67348,-250.6876 L-230.67348,-260.6876 -235.67348,-260.6876"/>

<line x1="-155.67348" y1="-250.6876" x2="-235.67348" y2="-250.6876"/>

<line x1="-165.67348" y1="-250.6876" x2="-165.67348" y2="-180.8601"/>

<path d="M-120.27625,-140.6876 L-115.27625,-140.6876 -115.27625,-60.6876 C-76.61632,-60.6876 -45.27625,-92.02767 -45.27625,-130.6876 L-45.27625,-140.6876 -40.27625,-140.6876"/>

<line x1="-120.27625" y1="-130.6876" x2="-40.27625" y2="-130.6876"/>

<line x1="-110.27625" y1="-130.6876" x2="-110.27625" y2="-60.8601"/>

<path d="M174.6564,-140.6876 L179.6564,-140.6876 179.6564,-60.6876 C218.31633,-60.6876 249.6564,-92.02767 249.6564,-130.6876 L249.6564,-140.6876 254.6564,-140.6876"/>

<line x1="174.6564" y1="-130.6876" x2="254.6564" y2="-130.6876"/>

<line x1="184.6564" y1="-130.6876" x2="184.6564" y2="-60.8601"/>

<path d="M466.19513,-140.6876 L471.19513,-140.6876 471.19513,-60.6876 C509.85506,-60.6876 541.19513,-92.02767 541.19513,-130.6876 L541.19513,-140.6876 546.19513,-140.6876"/>

<line x1="466.19513" y1="-130.6876" x2="546.19513" y2="-130.6876"/>

<line x1="476.19513" y1="-130.6876" x2="476.19513" y2="-60.8601"/>

<path d="M732.98766,-218.99931 L732.98766,-213.99931 810.29927,-213.99931 C810.29927,-176.82413 780.16284,-146.6877 742.98766,-146.6877 L732.98766,-146.6877 732.98766,-141.6877"/>

<line x1="742.98766" y1="-218.99931" x2="742.98766" y2="-141.6877"/>

<line x1="742.98766" y1="-208.99931" x2="810.13295" y2="-208.99931"/>
</g><g transform="translate(0.54133,0) scale(0.49913) translate(963.6,343.6) rotate(360) translate(0,10)" stroke="#000000" stroke-width="0.60105" opacity="1" fill="none">
<text y="-4" font-size="20" stroke="black" stroke-width="0.30052" fill="white" text-anchor="middle">91.52 m²</text>
</g><g transform="translate(0.54133,0) scale(0.49913) translate(813.20219,465.2876)" stroke="#006600" stroke-width="1.80315" opacity="1" fill="none">
<line x1="-739.10219" y1="-436.7876" x2="1039.89781" y2="-436.7876"/>
</g><g transform="translate(0.54133,0) scale(0.49913) translate(813.20219,465.2876)" stroke="#ffffff" stroke-width="0.60105" opacity="1" fill="none">
<line x1="-739.10219" y1="-436.7876" x2="1039.89781" y2="-436.7876"/>
</g><g transform="translate(0.54133,0) scale(0.49913) translate(813.20219,465.2876)" stroke="#006600" stroke-width="1.80315" opacity="1" fill="none">
<line x1="-729.60219" y1="-398.7876" x2="-729.60219" y2="-446.2876"/>
</g><g transform="translate(0.54133,0) scale(0.49913) translate(813.20219,465.2876)" stroke="#ffffff" stroke-width="0.60105" opacity="1" fill="none">
<line x1="-729.60219" y1="-398.7876" x2="-729.60219" y2="-446.2876"/>
</g><g transform="translate(0.54133,0) scale(0.49913) translate(813.20219,465.2876)" stroke="#006600" stroke-width="1.80315" opacity="1" fill="none">
<line x1="-734.35219" y1="-441.5376" x2="-724.85219" y2="-432.0376"/>
</g><g transform="translate(0.54133,0) scale(0.49913) translate(813.20219,465.2876)" stroke="#ffffff" stroke-width="0.60105" opacity="1" fill="none">
<line x1="-734.35219" y1="-441.5376" x2="-724.85219" y2="-432.0376"/>
</g><g transform="translate(0.54133,0) scale(0.49913) translate(813.20219,465.2876)" stroke="#006600" stroke-width="1.80315" opacity="1" fill="none">
<line x1="1030.39781" y1="-398.7876" x2="1030.39781" y2="-446.2876"/>
</g><g transform="translate(0.54133,0) scale(0.49913) translate(813.20219,465.2876)" stroke="#ffffff" stroke-width="0.60105" opacity="1" fill="none">
<line x1="1030.39781" y1="-398.7876" x2="1030.39781" y2="-446.2876"/>
</g><g transform="translate(0.54133,0) scale(0.49913) translate(813.20219,465.2876)" stroke="#006600" stroke-width="1.80315" opacity="1" fill="none">
<line x1="1025.64781" y1="-441.5376" x2="1035.14781" y2="-432.0376"/>
</g><g transform="translate(0.54133,0) scale(0.49913) translate(813.20219,465.2876)" stroke="#ffffff" stroke-width="0.60105" opacity="1" fill="none">
<line x1="1025.64781" y1="-441.5376" x2="1035.14781" y2="-432.0376"/>
</g><g transform="translate(0.54133,0) scale(0.49913) translate(963.6,23.75)" stroke="#ffffff" stroke-width="0.60105" opacity="1" fill="none">
<text y="-3" font-size="19" stroke="black" stroke-width="0.30052" fill="white" text-anchor="middle">17.6</text>
</g><g transform="translate(0.54133,0) scale(0.49913) translate(813.20219,465.2876)" stroke="#006600" stroke-width="1.80315" opacity="1" fill="none">
<line x1="-739.10219" y1="193.4124" x2="1039.89781" y2="193.4124"/>
</g><g transform="translate(0.54133,0) scale(0.49913) translate(813.20219,465.2876)" stroke="#ffffff" stroke-width="0.60105" opacity="1" fill="none">
<line x1="-739.10219" y1="193.4124" x2="1039.89781" y2="193.4124"/>
</g><g transform="translate(0.54133,0) scale(0.49913) translate(813.20219,465.2876)" stroke="#006600" stroke-width="1.80315" opacity="1" fill="none">
<line x1="-729.60219" y1="155.4124" x2="-729.60219" y2="202.9124"/>
</g><g transform="translate(0.54133,0) scale(0.49913) translate(813.20219,465.2876)" stroke="#ffffff" stroke-width="0.60105" opacity="1" fill="none">
<line x1="-729.60219" y1="155.4124" x2="-729.60219" y2="202.9124"/>
</g><g transform="translate(0.54133,0) scale(0.49913) translate(813.20219,465.2876)" stroke="#006600" stroke-width="1.80315" opacity="1" fill="none">
<line x1="-734.35219" y1="188.6624" x2="-724.85219" y2="198.1624"/>
</g><g transform="translate(0.54133,0) scale(0.49913) translate(813.20219,465.2876)" stroke="#ffffff" stroke-width="0.60105" opacity="1" fill="none">
<line x1="-734.35219" y1="188.6624" x2="-724.85219" y2="198.1624"/>
</g><g transform="translate(0.54133,0) scale(0.49913) translate(813.20219,465.2876)" stroke="#006600" stroke-width="1.80315" opacity="1" fill="none">
<line x1="1030.39781" y1="155.4124" x2="1030.39781" y2="202.9124"/>
</g><g transform="translate(0.54133,0) scale(0.49913) translate(813.20219,465.2876)" stroke="#ffffff" stroke-width="0.60105" opacity="1" fill="none">
<line x1="1030.39781" y1="155.4124" x2="1030.39781" y2="202.9124"/>
</g><g transform="translate(0.54133,0) scale(0.49913) translate(813.20219,465.2876)" stroke="#006600" stroke-width="1.80315" opacity="1" fill="none">
<line x1="1025.64781" y1="188.6624" x2="1035.14781" y2="198.1624"/>
</g><g transform="translate(0.54133,0) scale(0.49913) translate(813.20219,465.2876)" stroke="#ffffff" stroke-width="0.60105" opacity="1" fill="none">
<line x1="1025.64781" y1="188.6624" x2="1035.14781" y2="198.1624"/>
</g><g transform="translate(0.54133,0) scale(0.49913) translate(963.6,653.95)" stroke="#ffffff" stroke-width="0.60105" opacity="1" fill="none">
<text y="-3" font-size="19" stroke="black" stroke-width="0.30052" fill="white" text-anchor="middle">17.6</text>
</g><g transform="translate(0.54133,0) scale(0.49913) translate(813.20219,465.2876)" stroke="#006600" stroke-width="1.80315" opacity="1" fill="none">
<line x1="-784.70219" y1="-391.1876" x2="-784.70219" y2="147.8124"/>
</g><g transform="translate(0.54133,0) scale(0.49913) translate(813.20219,465.2876)" stroke="#ffffff" stroke-width="0.60105" opacity="1" fill="none">
<line x1="-784.70219" y1="-391.1876" x2="-784.70219" y2="147.8124"/>
</g><g transform="translate(0.54133,0) scale(0.49913) translate(813.20219,465.2876)" stroke="#006600" stroke-width="1.80315" opacity="1" fill="none">
<line x1="-746.70219" y1="-381.6876" x2="-794.20219" y2="-381.6876"/>
</g><g transform="translate(0.54133,0) scale(0.49913) translate(813.20219,465.2876)" stroke="#ffffff" stroke-width="0.60105" opacity="1" fill="none">
<line x1="-746.70219" y1="-381.6876" x2="-794.20219" y2="-381.6876"/>
</g><g transform="translate(0.54133,0) scale(0.49913) translate(813.20219,465.2876)" stroke="#006600" stroke-width="1.80315" opacity="1" fill="none">
<line x1="-779.95219" y1="-386.4376" x2="-789.45219" y2="-376.9376"/>
</g><g transform="translate(0.54133,0) scale(0.49913) translate(813.20219,465.2876)" stroke="#ffffff" stroke-width="0.60105" opacity="1" fill="none">
<line x1="-779.95219" y1="-386.4376" x2="-789.45219" y2="-376.9376"/>
</g><g transform="translate(0.54133,0) scale(0.49913) translate(813.20219,465.2876)" stroke="#006600" stroke-width="1.80315" opacity="1" fill="none">
<line x1="-746.70219" y1="138.3124" x2="-794.20219" y2="138.3124"/>
</g><g transform="translate(0.54133,0) scale(0.49913) translate(813.20219,465.2876)" stroke="#ffffff" stroke-width="0.60105" opacity="1" fill="none">
<line x1="-746.70219" y1="138.3124" x2="-794.20219" y2="138.3124"/>
</g><g transform="translate(0.54133,0) scale(0.49913) translate(813.20219,465.2876)" stroke="#006600" stroke-width="1.80315" opacity="1" fill="none">
<line x1="-779.95219" y1="133.5624" x2="-789.45219" y2="143.0624"/>
</g><g transform="translate(0.54133,0) scale(0.49913) translate(813.20219,465.2876)" stroke="#ffffff" stroke-width="0.60105" opacity="1" fill="none">
<line x1="-779.95219" y1="133.5624" x2="-789.45219" y2="143.0624"/>
</g><g transform="translate(0.54133,0) scale(0.49913) translate(4.75,343.6) rotate(270) translate(0,19)" stroke="#ffffff" stroke-width="0.60105" opacity="1" fill="none">
<text y="-3" font-size="19" stroke="black" stroke-width="0.30052" fill="white" text-anchor="middle">5.2</text>
</g><g transform="translate(0.54133,0) scale(0.49913) translate(813.20219,465.2876)" stroke="#006600" stroke-width="1.80315" opacity="1" fill="none">
<line x1="1085.49781" y1="-391.1876" x2="1085.49781" y2="147.8124"/>
</g><g transform="translate(0.54133,0) scale(0.49913) translate(813.20219,465.2876)" stroke="#ffffff" stroke-width="0.60105" opacity="1" fill="none">
<line x1="1085.49781" y1="-391.1876" x2="1085.49781" y2="147.8124"/>
</g><g transform="translate(0.54133,0) scale(0.49913) translate(813.20219,465.2876)" stroke="#006600" stroke-width="1.80315" opacity="1" fill="none">
<line x1="1047.49781" y1="-381.6876" x2="1094.99781" y2="-381.6876"/>
</g><g transform="translate(0.54133,0) scale(0.49913) translate(813.20219,465.2876)" stroke="#ffffff" stroke-width="0.60105" opacity="1" fill="none">
<line x1="1047.49781" y1="-381.6876" x2="1094.99781" y2="-381.6876"/>
</g><g transform="translate(0.54133,0) scale(0.49913) translate(813.20219,465.2876)" stroke="#006600" stroke-width="1.80315" opacity="1" fill="none">
<line x1="1090.24781" y1="-386.4376" x2="1080.74781" y2="-376.9376"/>
</g><g transform="translate(0.54133,0) scale(0.49913) translate(813.20219,465.2876)" stroke="#ffffff" stroke-width="0.60105" opacity="1" fill="none">
<line x1="1090.24781" y1="-386.4376" x2="1080.74781" y2="-376.9376"/>
</g><g transform="translate(0.54133,0) scale(0.49913) translate(813.20219,465.2876)" stroke="#006600" stroke-width="1.80315" opacity="1" fill="none">
<line x1="1047.49781" y1="138.3124" x2="1094.99781" y2="138.3124"/>
</g><g transform="translate(0.54133,0) scale(0.49913) translate(813.20219,465.2876)" stroke="#ffffff" stroke-width="0.60105" opacity="1" fill="none">
<line x1="1047.49781" y1="138.3124" x2="1094.99781" y2="138.3124"/>
</g><g transform="translate(0.54133,0) scale(0.49913) translate(813.20219,465.2876)" stroke="#006600" stroke-width="1.80315" opacity="1" fill="none">
<line x1="1090.24781" y1="133.5624" x2="1080.74781" y2="143.0624"/>
</g><g transform="translate(0.54133,0) scale(0.49913) translate(813.20219,465.2876)" stroke="#ffffff" stroke-width="0.60105" opacity="1" fill="none">
<line x1="1090.24781" y1="133.5624" x2="1080.74781" y2="143.0624"/>
</g><g transform="translate(0.54133,0) scale(0.49913) translate(1874.95,343.6) rotate(270) translate(0,19)" stroke="#ffffff" stroke-width="0.60105" opacity="1" fill="none">
<text y="-3" font-size="19" stroke="black" stroke-width="0.30052" fill="white" text-anchor="middle">5.2</text></g></g>
</svg>